<?xml version="1.0" standalone="no"?>
<!DOCTYPE svg PUBLIC "-//W3C//DTD SVG 1.1//EN" "http://www.w3.org/Graphics/SVG/1.1/DTD/svg11.dtd" >
<svg xmlns="http://www.w3.org/2000/svg" xmlns:xlink="http://www.w3.org/1999/xlink" version="1.1">
<metadata>
Created by FontForge 20230101 at Sat Jun 20 12:51:10 1998
 By Glenn Lewis
http://members.aol.com/vroomfonde/ttf/ - Resurgence Copyright (c) 1998 Tom Murphy 7 - Distribute and use freely, but do not sell (on CD, for instance!) - ImightbeTM@aol.com - 339 Still Hill Rd - Hamden CT 06518 USA - Try not to swallow too much paint!
</metadata>
<defs>
<font id="Resurgence" horiz-adv-x="665" >
  <font-face 
    font-family="Resurgence"
    font-weight="400"
    font-stretch="normal"
    units-per-em="1000"
    panose-1="0 0 4 0 0 0 0 0 0 0"
    ascent="800"
    descent="-200"
    x-height="548"
    cap-height="691"
    bbox="9 -160 808 823"
    underline-thickness="20"
    underline-position="-143"
    unicode-range="U+0020-2026"
  />
<missing-glyph horiz-adv-x="500" 
d="M63 0v800h375v-800h-375zM125 63h250v675h-250v-675z" />
    <glyph glyph-name=".notdef" horiz-adv-x="500" 
d="M63 0v800h375v-800h-375zM125 63h250v675h-250v-675z" />
    <glyph glyph-name=".null" horiz-adv-x="0" 
 />
    <glyph glyph-name="nonmarkingreturn" horiz-adv-x="634" 
 />
    <glyph glyph-name="space" unicode=" " horiz-adv-x="634" 
 />
    <glyph glyph-name="exclam" unicode="!" horiz-adv-x="220" 
d="M161 158q0 -5 -11 -21.5t-15 -16.5q-5 0 -16.5 10.5t-11.5 16.5q0 41 3 123.5t3 124.5q0 13 1 59q1 39 0 57l-6 221q3 1 22 1q15 0 16 -11l2 -22v-42l-1 -69q0 -34 3.5 -70.5t2.5 -72.5v-33q0 -3 1 -47t2 -123q0 -9 2.5 -42.5t2.5 -42.5zM93 518q2 -40 2 -94
q0 -125 -8 -282q0 -5 -5.5 -12t-9.5 -7q-14 0 -16 24v44q0 -5 0 60l1 424q0 42 20 49q7 -2 9 -11q1 -6 -1 -17q-1 -14 -1 -16q0 -6 3 -19t4 -18q1 -10 0 -26q-2 -21 -2 -26q0 -7 2 -31q2 -29 2 -42zM165 43q0 -23 -33 -23q-30 0 -36 2q-18 5 -18 27q0 14 6 29q7 19 17 19
t30 -7q26 -9 30 -14.5t4 -32.5z" />
    <glyph glyph-name="quotedbl" unicode="&#x22;" horiz-adv-x="279" 
d="M125 708q-5 -40 -5 -45q-1 -32 -19.5 -54t-49.5 -22q-5 0 -10.5 2t-6.5 2q1 8 13 23t12 19v18q-23 -5 -31 2t-6 20q2 26 2 19q-1 13 -3 26q0 12 13.5 21.5t46.5 9.5q35 0 40.5 -9t3.5 -32zM263 708q-5 -40 -5 -45q-1 -32 -19.5 -54t-49.5 -22q-5 0 -10.5 2t-6.5 2
q1 8 13 23t12 19v18q-23 -5 -31 2t-6 20q2 26 2 19q-1 13 -3 26q0 12 13.5 21.5t46.5 9.5q35 0 40.5 -9t3.5 -32z" />
    <glyph glyph-name="numbersign" unicode="#" 
d="M506 400q0 -92 -48 -149q-51 -61 -139 -61q-5 0 -26 4t-26 4q-64 0 -107 76q-33 58 -33 106q0 73 57 141q63 76 149 76h23q32 0 56 -22q66 -60 79 -84q15 -27 15 -91zM450 392q0 21 -15 50q-12 21 -19 27q-35 -50 -70 -101q-44 -65 -61 -117q11 -5 13 -6t11 0q15 1 32 1
q41 0 77 58q32 51 32 88zM382 531q-21 14 -41 14q-64 0 -110 -58q-44 -54 -44 -117q0 -55 30 -80q53 81 165 241z" />
    <glyph glyph-name="dollar" unicode="$" 
d="M506 400q0 -92 -48 -149q-51 -61 -139 -61q-5 0 -26 4t-26 4q-64 0 -107 76q-33 58 -33 106q0 73 57 141q63 76 149 76h23q32 0 56 -22q66 -60 79 -84q15 -27 15 -91zM450 392q0 21 -15 50q-12 21 -19 27q-35 -50 -70 -101q-44 -65 -61 -117q11 -5 13 -6t11 0q15 1 32 1
q41 0 77 58q32 51 32 88zM382 531q-21 14 -41 14q-64 0 -110 -58q-44 -54 -44 -117q0 -55 30 -80q53 81 165 241z" />
    <glyph glyph-name="percent" unicode="%" 
d="M506 400q0 -92 -48 -149q-51 -61 -139 -61q-5 0 -26 4t-26 4q-64 0 -107 76q-33 58 -33 106q0 73 57 141q63 76 149 76h23q32 0 56 -22q66 -60 79 -84q15 -27 15 -91zM450 392q0 21 -15 50q-12 21 -19 27q-35 -50 -70 -101q-44 -65 -61 -117q11 -5 13 -6t11 0q15 1 32 1
q41 0 77 58q32 51 32 88zM382 531q-21 14 -41 14q-64 0 -110 -58q-44 -54 -44 -117q0 -55 30 -80q53 81 165 241z" />
    <glyph glyph-name="ampersand" unicode="&#x26;" 
d="M506 400q0 -92 -48 -149q-51 -61 -139 -61q-5 0 -26 4t-26 4q-64 0 -107 76q-33 58 -33 106q0 73 57 141q63 76 149 76h23q32 0 56 -22q66 -60 79 -84q15 -27 15 -91zM450 392q0 21 -15 50q-12 21 -19 27q-35 -50 -70 -101q-44 -65 -61 -117q11 -5 13 -6t11 0q15 1 32 1
q41 0 77 58q32 51 32 88zM382 531q-21 14 -41 14q-64 0 -110 -58q-44 -54 -44 -117q0 -55 30 -80q53 81 165 241z" />
    <glyph glyph-name="quotesingle" unicode="'" horiz-adv-x="143" 
d="M125 690q-5 -40 -5 -45q-1 -32 -19.5 -54t-49.5 -22q-5 0 -10.5 2t-6.5 2q1 8 13 23t12 19v18q-23 -5 -31 2t-6 20q2 26 2 19q-1 13 -3 26q0 12 13.5 21.5t46.5 9.5q35 0 40.5 -9t3.5 -32z" />
    <glyph glyph-name="parenleft" unicode="(" horiz-adv-x="279" 
d="M238 -25q0 -16 -23 -16q-29 0 -95 115q-59 102 -72 147q-25 89 -25 202q0 103 60 254q9 22 50 81q45 65 57 65q8 0 13 -15q-36 -76 -81 -173q-47 -114 -47 -248q0 -138 47 -243q30 -67 95 -139q21 -23 21 -30zM187 81q-18 21 -52 73q-21 38 -27 81q-1 2 -9 88
q-9 90 0 157q23 170 51 174q-10 -55 -21 -110q-7 -48 -7 -117q0 -99 19 -199q4 -22 12 -61q3 -11 19.5 -48.5t16.5 -39.5v0q-1 0 -2 2z" />
    <glyph glyph-name="parenright" unicode=")" horiz-adv-x="279" 
d="M23 807q0 16 23 16q29 0 95 -115q59 -102 72 -147q25 -89 25 -202q0 -103 -60 -254q-9 -21 -50 -81q-45 -65 -57 -65q-8 0 -13 15q36 76 81 173q47 114 47 248q0 138 -47 243q-30 67 -95 139q-21 23 -21 30zM74 701q18 -21 52 -72q21 -39 28 -82l8 -88q10 -88 0 -157
q-22 -170 -51 -174q10 55 21 110q7 48 7 117q0 99 -19 199q-3 22 -12 61q-3 11 -19.5 48.5t-16.5 39.5v0q1 0 2 -2z" />
    <glyph glyph-name="asterisk" unicode="*" 
d="M506 400q0 -92 -48 -149q-51 -61 -139 -61q-5 0 -26 4t-26 4q-64 0 -107 76q-33 58 -33 106q0 73 57 141q63 76 149 76h23q32 0 56 -22q66 -60 79 -84q15 -27 15 -91zM450 392q0 21 -15 50q-12 21 -19 27q-35 -50 -70 -101q-44 -65 -61 -117q11 -5 13 -6t11 0q15 1 32 1
q41 0 77 58q32 51 32 88zM382 531q-21 14 -41 14q-64 0 -110 -58q-44 -54 -44 -117q0 -55 30 -80q53 81 165 241z" />
    <glyph glyph-name="plus" unicode="+" horiz-adv-x="437" 
d="M390 379q0 -5 -11 -26q-14 -7 -54 -7q-44 0 -68 -9q2 -48 7 -145q-9 -11 -16 -11q-15 0 -19 27l-2 40q-20 -19 -28 -50q-6 -27 -18 -35q-10 16 -13 70q-5 62 -8.5 75t-8.5 13q-9 0 -28 -3t-29 -3q-15 0 -29.5 8.5t-27.5 16.5q0 22 35 22q7 0 20.5 -1.5t16.5 -1.5
q54 0 54 56q0 10 -2 31.5t-2 31.5q0 47 3 56h17l9 -7q9 -89 7 -149q3 -1 8 -1q3 0 10 1t10 1v7q0 14 -2 42t-2 42q0 26 7 43h20q10 -13 10 -54q0 -29 -1 -59l1 -15q17 0 51.5 6t52.5 6q9 0 19.5 -5t10.5 -13zM222 333v3h-23v-39q24 21 23 36z" />
    <glyph glyph-name="comma" unicode="," horiz-adv-x="143" 
d="M128 82q-5 -40 -5 -45q-1 -32 -19.5 -54t-49.5 -22q-5 0 -10.5 2t-6.5 2q1 8 13 23t12 19v18q-23 -5 -31 2t-6 20q2 26 2 19q-1 13 -3 26q0 12 13.5 21.5t46.5 9.5q35 0 40.5 -9t3.5 -32z" />
    <glyph glyph-name="hyphen" unicode="-" horiz-adv-x="357" 
d="M311 392q-1 -11 -31 -17q0 -4 -7 -11t-12 -7q-4 0 -31.5 4.5t-31.5 4.5q-3 0 -24.5 -1.5t-25.5 -1.5q-43 0 -68 -3t-20 -3q-4 0 -9.5 -1.5t-9.5 -1.5t-8.5 15t-4.5 20q0 9 1 15q27 17 177 17q24 0 57 -7q41 -9 48 -22z" />
    <glyph glyph-name="hyphen" unicode="&#x2010;" horiz-adv-x="357" 
d="M311 392q-1 -11 -31 -17q0 -4 -7 -11t-12 -7q-4 0 -31.5 4.5t-31.5 4.5q-3 0 -24.5 -1.5t-25.5 -1.5q-43 0 -68 -3t-20 -3q-4 0 -9.5 -1.5t-9.5 -1.5t-8.5 15t-4.5 20q0 9 1 15q27 17 177 17q24 0 57 -7q41 -9 48 -22z" />
    <glyph glyph-name="hyphen" unicode="&#x2010;" horiz-adv-x="357" 
d="M311 392q-1 -11 -31 -17q0 -4 -7 -11t-12 -7q-4 0 -31.5 4.5t-31.5 4.5q-3 0 -24.5 -1.5t-25.5 -1.5q-43 0 -68 -3t-20 -3q-4 0 -9.5 -1.5t-9.5 -1.5t-8.5 15t-4.5 20q0 9 1 15q27 17 177 17q24 0 57 -7q41 -9 48 -22z" />
    <glyph glyph-name="period" unicode="." horiz-adv-x="215" 
d="M154 66q0 -30 -13 -36q-3 -1 -37 -1q-41 0 -51 10.5t-10 53.5q0 39 10 49t51 10q5 0 37 -16q6 -3 8 -14q5 -22 5 -56z" />
    <glyph glyph-name="slash" unicode="/" horiz-adv-x="370" 
d="M336 750q0 -14 -52 -116q-12 -54 -50 -159.5t-51 -157.5q-4 -10 -12 -32q-21 -53 -58 -163q-12 -31 -34 -90q-4 -10 -15 -10l-15 -3q-6 0 -30 15q21 90 77 226q18 42 52 151q38 121 53 162q18 60 58 159q23 43 40 43q6 0 21.5 -10.5t15.5 -14.5z" />
    <glyph glyph-name="zero" unicode="0" horiz-adv-x="409" 
d="M384 268q-9 -81 -9 -84q-8 -42 -33 -76q-10 -12 -35 -37q-39 -30 -93 -30q-7 0 -36 7q-34 9 -51 17q-25 11 -59 61q-16 22 -30 59q-13 34 -17 58q-4 22 0 88q1 31 12 98q14 50 21 67q12 32 37 58q49 53 97 62q12 2 23 2q49 0 91 -30t57 -79q19 -61 25 -132q5 -59 0 -109z
M341 409q-13 89 -49 138q-6 8 -28 19.5t-27 11.5q-87 0 -92 -159q-2 -34 -5 -67q-2 -37 2 -68q12 -97 20 -125q18 -65 54 -69q22 -3 28 -3q54 0 75 75q7 22 22 144q7 55 0 103zM114 516q-26 -39 -39 -110q-5 -30 -5 -44l-6 -54h12q11 -1 15 -1q7 0 6 38v58q6 55 17 113z
M118 135q0 9 -12 55q-10 41 -8 57h-28q12 -61 48 -112zM303 298q0 -24 -10 -28q-3 -1 -29 -1q-32 0 -40 8t-8 42q0 31 8 38.5t40 7.5q3 0 28 -12q6 -5 7 -11q4 -17 4 -44z" />
    <glyph glyph-name="one" unicode="1" horiz-adv-x="339" 
d="M308 82q-4 -25 -101 -25q-24 0 -58 1.5t-36 1.5q-11 0 -32.5 -3t-31.5 -3q-8 0 -23 6v5q0 21 37 21q12 0 27.5 6.5t15.5 17.5q0 86 -6 236q-6 160 -7 264q1 7 -1 21q-2 6 -8 6q-9 0 -29 -13q-25 -16 -29 -18q-3 -1 -5 9q-2 6 34 44q40 44 43 49t3 27q0 27 18 33
q9 -6 9 -16q1 -13 5 -18q5 3 36 29q21 18 39 24q5 -21 4 -52q-3 -55 -3 -52q0 -39 3 -105q4 -74 5 -113v-201q0 -14 1 -47q1 -15 5 -53q4 -30 4 -59q0 -8 2 -14q13 -4 79 -9zM168 92v33q0 89 -2 244q-3 148 -3 224q0 19 -3 56.5t-3 55.5q-10 -4 -26 -14v-232q1 -63 8 -190
q5 -109 4 -174q10 -3 25 -3z" />
    <glyph glyph-name="two" unicode="2" horiz-adv-x="514" 
d="M441 94q0 -8 -8.5 -21t-16.5 -13q-4 0 -13 2.5t-14 2.5q-9 0 -13 -8l-40 5q-3 0 -28 -3.5t-36 -4.5q-17 -1 -158 -1q-14 0 -14 14q0 7 53 43q60 40 68 49l80 78q44 45 46 70q-34 -36 -94 -83q-90 -71 -195 -165q-7 7 -13 7q5 26 10 31q50 50 94 79q52 35 75 54
q16 14 44 40q35 32 104 104q9 11 16 50q5 31 5 47q0 46 -31 101q-34 60 -75 60q-3 0 -72 -19q-14 -4 -33 -18.5l-19 -14.5q-13 0 -13 14q0 22 56 45q49 20 71 20q17 0 19 1q-19 15 -37 14q-10 -1 -34 -9q-33 -11 -97 -62q-4 0 -8.5 1.5t-7.5 1.5v19q0 5 14 17.5t19 15.5
q74 37 132 42q33 2 73 -34q33 -29 60 -97.5t27 -116.5q0 -63 -26 -121q-19 -40 -50 -75q-16 -16 -45 -46q-20 -22 -57 -56q-10 -9 -51 -33q-32 -20 -32 -26q0 -9 10 -9q4 0 20.5 2t23.5 2q129 7 211 4z" />
    <glyph glyph-name="three" unicode="3" horiz-adv-x="319" 
d="M285 484q0 -75 -91 -142q27 -13 53 -64.5t26 -93.5q0 -29 -5 -42q-1 -4 -19 -35q-11 -18 -52 -39.5t-72 -21.5q-27 1 -41 -4q-28 6 -33 6q1 6 -3 16q34 12 100 40q4 2 19 27.5t15 62.5q0 138 -123 139q-14 3 -14 18q0 10 18 14q10 1 21 3q50 17 64.5 35.5t27 52.5
t12.5 53q0 10 -5 38q-6 36 -16 55q-7 13 -42 29.5t-53 16.5q10 0 -31 2q-1 8 6 19.5t14 11.5q-1 0 41 -3t58 -3q55 2 94 -58q14 -21 21 -54q4 -28 9 -57q1 -5 1 -22zM250 502q0 33 -17 73q-18 44 -41 55q34 -76 34 -124q0 -29 -12 -66q-15 -42 -34 -55q28 13 49 48t21 69z
M232 187q0 28 -11.5 61t-28.5 51q9 -27 17 -55q6 -18 6 -44q0 -29 -2.5 -37t-26.5 -62q46 26 46 86z" />
    <glyph glyph-name="four" unicode="4" horiz-adv-x="342" 
d="M336 446q0 -11 -12 -14q-16 -3 -20 -8q7 -23 7 -59q0 -24 -1.5 -140.5t-1.5 -141.5q0 -16 -16 -26q-1 0 -33 -16q-7 11 -7 185q-1 170 4 199q-18 0 -56 1t-57 1q-3 0 -4 -4.5t-4 -4.5l-25 11q-26 0 -68 8l-12 110q-7 69 -7 111q0 9 16 13q7 7 14 7q6 0 10 -14
q9 -30 10.5 -90t7.5 -88q15 4 15 45q0 23 -2.5 71t-2.5 71l25 5l13 -6q14 -73 14 -145q0 -40 6 -52h37q57 0 72 3q4 30 3 75q-2 85 -2 75q0 38 14 38q25 0 28 -5q7 -120 7 -175l22 -9z" />
    <glyph glyph-name="five" unicode="5" horiz-adv-x="443" 
d="M378 258q0 -81 -6 -101q-18 -64 -69 -78q-89 -23 -110 -23q-3 0 -15.5 1t-18 1t-31.5 1h-31q-30 0 -51 14q7 22 21 22q3 0 12.5 -3.5t13.5 -3.5q3 0 21 3.5t27 3.5q94 8 118 15q71 23 71 93t-68 134.5t-139 64.5q-16 0 -30 -4l-43 -3q-8 22 -8 71t-6 72v97q-1 5 7 21
q16 0 21 -7q15 -32 14 -105q0 -119 -1 -114q17 5 17 60q0 4 -3.5 81.5t-3.5 81.5q0 5 9 15.5t16 13.5q2 -1 9 -10.5t12 -9.5q4 0 101 2t101 2t40 -17v-31q-11 -7 -34 -7q1 0 -32 1q-36 2 -64 2q-40 1 -65 -1q-19 -2 -47 -11l-4 -163q87 6 168 -52.5t81 -128.5z" />
    <glyph glyph-name="six" unicode="6" horiz-adv-x="400" 
d="M368 226q0 -3 -6 -29t-8 -36q-6 -41 -61 -62q-42 -17 -88 -17q-9 0 -45 18t-48 27t-22 22q-32 41 -39 69q-10 35 -25 115q-8 69 0 124q7 53 21 90q11 31 44 91q9 19 18 37q13 27 24 35q5 4 26 4q13 0 13 -16q0 -17 -18 -43q-99 -137 -99 -263q0 -48 11 -103.5t27 -82.5
q0 6 -11 74q-10 64 -10 87q0 72 25 136q7 24 22 61q19 35 57 102q3 6 16 11.5t18 5.5q20 0 20 -18q0 -5 -30 -42q-74 -89 -87 -172q-4 -15 -7 -30q-5 -28 -5 -60q0 -29 10 -86q6 13 25 38q5 6 37 26q38 25 50 25q145 0 145 -138zM319 239q0 27 -11 54q-17 39 -48 39
q-49 0 -84 -30q-38 -33 -38 -83q0 -33 23 -66q25 -36 59 -36q44 0 72 38q27 35 27 84z" />
    <glyph glyph-name="seven" unicode="7" horiz-adv-x="440" 
d="M403 657q0 -2 -34 -62q-39 -69 -52 -96q-22 -46 -148 -339q-48 -111 -57 -111q-3 0 -7.5 2.5t-7.5 2.5q-16 0 -16 12q0 2 20 37.5t24 46.5q121 287 235 482q-10 10 -17 10q-2 0 -3 -2q-42 -60 -135 -262q-35 -67 -91 -193q-11 -32 -66 -131q-4 0 -13 6.5t-9 10.5
q0 3 21 40q23 43 30 64q19 57 59 153q41 73 82 145q53 95 75 158q-8 15 -16 15q-4 0 -51 -1.5t-50 -1.5q-16 0 -85 3q-14 1 -47 12q0 25 39 25h272q13 0 30.5 -7t17.5 -19z" />
    <glyph glyph-name="eight" unicode="8" horiz-adv-x="466" 
d="M423 131q0 -41 -25 -68q-19 -20 -62 -42q-34 -17 -76 -17q-86 0 -145 51q-62 53 -62 138q0 36 26 83t57 65q-31 12 -63 24q-55 29 -55 88q0 74 65.5 136t139.5 62q5 0 15.5 -4.5t15.5 -4.5q10 0 24 -10q104 -78 104 -189q0 -32 -19 -55q-22 -21 -43 -43q42 -26 74 -96
q29 -65 29 -118zM338 465q0 55 -31 97q-35 45 -88 45q-46 0 -80 -38t-34 -86q0 -68 69 -101q31 -16 63 -13q44 4 72.5 28.5t28.5 67.5zM114 378q-26 28 -35 44q-13 23 -13 55q0 13 5 32q7 25 8 32q-11 -11 -19 -41q-7 -26 -7 -46q0 -50 61 -76zM385 144q-2 32 -17 64
q-50 112 -121 107q-47 -3 -67 -17q-28 -20 -34 -75q-2 -20 -2 -36q0 -80 56 -122q18 -14 33 -19t30 -5q32 0 82 35q12 8 23.5 16.5t15.5 21.5q2 7 1 30zM127 77q-2 14 -13 54q-8 29 -8 61q0 23 21 97q-43 -58 -43 -89q0 -28 11 -66q14 -45 32 -57z" />
    <glyph glyph-name="nine" unicode="9" horiz-adv-x="360" 
d="M321 684l-7 -660l-12 -9q-18 4 -28 13q2 154 2 175q0 14 -1.5 41t-1.5 40q0 29 -3 45h-4q-13 0 -26 -6q-17 -7 -25 -8q-22 -4 -47 -2q-22 2 -43 11q-108 45 -108 157q0 77 47 140q51 70 124 70q57 0 86 -26q4 12 10 24.5t18 12.5q7 0 19 -18zM274 596q0 15 -2 45
q-48 21 -64 21q-15 0 -38 -17q-36 -25 -48 -61q-10 -27 -10 -77q0 -57 17 -101q24 -59 72 -59q8 0 36.5 4.5t33.5 8.5q0 -7 -3 51q-1 30 -1 54q4 40 7 131zM117 363q-45 36 -45 144q0 49 19 92q-12 -15 -24 -45t-12 -48q0 -44 13 -81q17 -49 49 -62z" />
    <glyph glyph-name="colon" unicode=":" horiz-adv-x="215" 
d="M154 66q0 -30 -13 -36q-3 -1 -37 -1q-41 0 -51 10.5t-10 53.5q0 39 10 49t51 10q5 0 37 -16q6 -3 8 -14q5 -22 5 -56zM174 369q0 -30 -13 -36q-3 -1 -37 -1q-41 0 -51 10.5t-10 53.5q0 39 10 49t51 10q5 0 37 -16q6 -3 8 -14q5 -22 5 -56z" />
    <glyph glyph-name="semicolon" unicode=";" horiz-adv-x="143" 
d="M128 82q-5 -40 -5 -45q-1 -32 -19.5 -54t-49.5 -22q-5 0 -10.5 2t-6.5 2q1 8 13 23t12 19v18q-23 -5 -31 2t-6 20q2 26 2 19q-1 13 -3 26q0 12 13.5 21.5t46.5 9.5q35 0 40.5 -9t3.5 -32zM133 417q0 -30 -13 -36q-3 -1 -37 -1q-41 0 -51 10.5t-10 53.5q0 39 10 49t51 10
q5 0 37 -16q6 -3 8 -14q5 -22 5 -56z" />
    <glyph glyph-name="less" unicode="&#x3c;" horiz-adv-x="313" 
d="M283 660q0 -10 -45 -78q-58 -86 -60 -90q-34 -58 -58 -93q-39 -56 -39 -60q0 -3 12.5 -24.5t15.5 -28.5q13 -38 84 -143q61 -91 61 -119q0 -16 -16 -16q-13 0 -60 79q-32 56 -64 113q-16 39 -56 108q-9 3 -25 10q2 14 4 38q-1 7 -14.5 26t-13.5 33q0 44 115 206
q82 116 123 164q8 -13 4 -18l16 -6t8 -13q0 2 -74 -103q-43 -58 -133 -196q-25 -43 -25 -44q0 -4 5 -9t6 -7q13 21 37 56q51 72 90 136q4 7 32 43q13 20 27 39q17 24 27 30q7 -4 7.5 -10t0.5 -11q0 -1 4 -5t4 -7z" />
    <glyph glyph-name="equal" unicode="=" horiz-adv-x="357" 
d="M311 502q-1 -11 -31 -17q0 -4 -7 -11t-12 -7q-4 0 -31.5 4.5t-31.5 4.5q-3 0 -24.5 -1.5t-25.5 -1.5q-43 0 -68 -3t-20 -3q-4 0 -9.5 -1.5t-9.5 -1.5t-8.5 15t-4.5 20q0 9 1 15q27 17 177 17q24 0 57 -7q41 -9 48 -22zM311 334q-1 -11 -31 -17q0 -4 -7 -11t-12 -7
q-4 0 -31.5 4.5t-31.5 4.5q-3 0 -24.5 -1.5t-25.5 -1.5q-43 0 -68 -3t-20 -3q-4 0 -9.5 -1.5t-9.5 -1.5t-8.5 15t-4.5 20q0 9 1 15q27 17 177 17q24 0 57 -7q41 -9 48 -22z" />
    <glyph glyph-name="greater" unicode="&#x3e;" horiz-adv-x="313" 
d="M9 660q0 -10 45 -78q58 -86 60 -90q34 -58 58 -93q39 -56 39 -60q0 -3 -12.5 -24.5t-15.5 -28.5q-13 -38 -84 -143q-61 -91 -61 -119q0 -16 15 -16q14 0 61 79q32 56 64 113q16 39 56 108q8 3 25 10q-2 14 -4 38q1 7 14.5 26t13.5 33q0 44 -115 206q-82 116 -123 164
q-8 -13 -4 -18l-16 -6t-8 -13q0 2 74 -103q43 -58 133 -196q25 -43 25 -44q0 -4 -5 -9t-6 -7q-13 21 -37 56q-51 72 -90 136q-4 7 -32 43q-14 20 -27 39q-17 24 -27 30q-7 -4 -7.5 -10t-0.5 -11q0 -1 -4 -5t-4 -7z" />
    <glyph glyph-name="question" unicode="?" horiz-adv-x="426" 
d="M385 646q10 -26 10 -51q0 -26 -19 -88q-13 -45 -54 -87q-45 -45 -92 -52q1 -20 9 -78q7 -50 7 -78q0 -5 -7 -17q-9 -15 -10 -18q-7 9 -29 12q-1 27 -3 59q-3 37 -5 74q-7 58 -25 58q-9 0 -9 -9q0 -13 5.5 -40.5t5.5 -41.5t4 -40t4 -39q0 -22 -30 -28q-6 30 -9 86
q-5 61 -8 86q-4 29 0 40q5 13 55 23q62 13 88 28q46 28 46 84q0 55 -42 106q-43 55 -97 55q-44 0 -77 -18q-21 -11 -39 -32q-15 -17 -18 -17q-2 0 -15 15.5t-15 17.5q14 38 81 68q59 25 106 25q60 0 107 -23q54 -27 75 -80zM252 55q-1 -32 -1 -37q-3 -25 -12 -32
q-28 2 -34 5q-19 6 -19 23q0 57 14 57h19q7 0 33 -16zM352 632q-18 74 -93 79q30 -22 57.5 -62.5t34.5 -74.5q6 37 1 58z" />
    <glyph glyph-name="at" unicode="@" horiz-adv-x="602" 
d="M543 382q0 -81 -11 -120q-6 -23 -34 -39q-23 -13 -41 -13q-5 0 -14 2.5t-15 2.5t-33 -7t-33 -7q-5 0 -92 4.5t-92 4.5t-14 2.5t-13 2.5q-27 0 -35 11q-17 27 -25 94q-12 100 -12 134q0 17 10 33q6 8 67.5 23.5t86.5 15.5q88 0 121 -78q20 -48 20 -139v-25q0 -33 5 -33
q6 0 17 10t11 15v170q-6 37 -11 74q-7 33 -57 33q-5 0 -52.5 -2.5t-53.5 -2.5t-43 4.5t-42 4.5t-33.5 -2t-34.5 -2q-23 0 -56 15q10 17 58 29q38 10 61 10q6 0 46.5 -7t45.5 -7l79 5q5 0 24.5 -3t31.5 -4q69 -11 77 -40q0 5 1 -15q1 -23 2 -75q1 -73 2 -197q20 2 25 12
q-2 13 2 40.5t4 29.5q0 5 -9 99.5t-9 100.5q0 8 8.5 16.5t16.5 8.5q17 0 32 -92q11 -70 11 -97zM344 339q0 137 -103 137q-51 0 -51 -64q0 -8 1 -21v-18q0 -55 6 -93q2 -16 -5 -33q34 2 63 2q20 0 38.5 -1.5t19.5 -1.5q31 0 31 93zM166 453l-13 10q-3 1 -5 1q-13 0 -13 -35
q0 -10 1 -31t1 -30q0 -109 16 -117l11 15zM317 321q0 -34 -40 -34q-45 0 -45 38q0 43 38 43q5 0 17.5 -2.5t19.5 -2.5q10 -30 10 -42z" />
    <glyph glyph-name="A" unicode="A" horiz-adv-x="377" 
d="M356 83q0 -9 -9.5 -26.5t-16.5 -20.5l-10 21q-5 13 -15 35q-6 -3 -19 -6q-30 -7 -65 -4q-55 5 -101 35q-78 51 -78 139q0 115 69 175q43 38 124 38q50 0 55 -9q0 10 1.5 31.5t1.5 32.5q0 41 -34 64q-29 20 -71 20q-44 0 -60 -11q-15 -16 -29 -31q-2 -2 -10 -15
q-4 -8 -9 -6q-2 2 -13 3.5t-11 5.5q0 34 45 68q42 32 78 32q157 0 163 -173q2 -87 2 -267q0 -21 6 -65.5t6 -65.5zM304 149q0 36 -3 61q-4 41 -5 47q-3 46 -4 86q-1 74 0 85q-11 1 -33 5.5t-33 4.5q-28 0 -40 -15q-37 -43 -37 -170q0 -77 37 -110q29 -25 53 -25q18 0 62 6
q0 4 1.5 12.5t1.5 12.5zM134 154q-23 66 -23 121q0 13 16 111q-12 -20 -33 -69q-10 -37 -6 -69q10 -77 46 -94z" />
    <glyph glyph-name="B" unicode="B" horiz-adv-x="420" 
d="M385 261q0 -51 -44 -114.5t-91 -83.5q-7 -3 -83 -18q-3 -13 -13 -39q-10 7 -24 39q-12 -1 -36 -6.5t-36 -5.5q-19 0 -19 110q0 31 1.5 74.5t1.5 46.5q0 11 -4.5 33t-4.5 33q0 60 -3 179t-3 178q0 5 -3 16t-3 16q0 4 13 32l25 7l5 -8q5 -160 13 -265q1 -18 7 -37
q10 7 18 13q-12 97 -12 254q0 45 19 64q10 -6 14 -13q0 5 7 -33q8 -43 7.5 -128t6.5 -126q10 1 30 11q17 8 38 8q13 0 31 -3q71 -10 111 -94q31 -67 31 -140zM328 273q0 32 -8 69q-16 65 -51 86q-38 23 -76 19q-20 -2 -49 -18q5 -23 5 -159q0 -100 19 -186q49 0 96 41
q64 56 64 148zM128 78l-3 61q-10 167 -21 279q-20 -9 -20 -26q0 -74 3 -163q1 -25 6 -87q4 -48 3 -63q0 -5 6 -6q5 0 13 1.5t13 3.5z" />
    <glyph glyph-name="C" unicode="C" horiz-adv-x="330" 
d="M303 99q-25 -24 -64 -26q-75 -5 -137 47.5t-71 128.5q-9 71 -2 121q0 3 14 68q12 57 72 97t123 40q45 0 61 -21q7 -9 7 -14q0 -12 -13 -5q-22 11 -55 6q-52 -9 -69 -50q-14 -35 -25 -170q-2 -20 -2 -39q0 -60 22 -139q9 -33 79 -33q8 0 57 8q12 2 12 -6q0 -5 -9 -13z
M126 496q-17 -6 -37 -61q-22 -58 -22 -108q-1 -59 40 -146q-7 53 -9 81q-2 37 3 96q7 94 25 138z" />
    <glyph glyph-name="D" unicode="D" horiz-adv-x="377" 
d="M340 87q1 -30 -36 -30q-8 0 -11 14q-3 19 -4 21q-6 -3 -19 -6q-17 -4 -62 0q-78 5 -125 47q-57 51 -57 123q0 99 46 154q50 59 147 59q51 0 55 -9q0 112 1 161q2 128 15 144q7 -5 14 -24t12 -25q9 -10 10 -55v-83q-1 -45 0 -145q5 -115 14 -346zM288 149q0 33 -4 70
q-4 41 -5 64v63q0 7 -3 43q-2 23 0 39q-11 0 -33 4.5t-33 4.5q-77 0 -77 -184q0 -53 18 -89q24 -47 72 -47q18 0 62 7q0 4 1.5 12.5t1.5 12.5zM118 154q-23 66 -23 121q0 13 16 110q-12 -20 -33 -69q-6 -21 -6 -68q0 -23 14 -54t32 -40z" />
    <glyph glyph-name="E" unicode="E" horiz-adv-x="489" 
d="M470 195q0 -59 -93 -102q-78 -36 -139 -36q-10 0 -15 1q-75 22 -104 39q-76 41 -76 253q0 86 44 157q49 78 124 84q34 3 45 0q26 -5 21 -5q64 0 118 -80q50 -72 50 -140q0 -34 -6.5 -36.5t-31.5 -1.5q-29 2 -49 -1l-7 -10q-9 -10 -28 -21q-3 13 -16 29h-64q-68 0 -93 -3
q-1 -6 -1 -45q0 -48 14 -95q20 -70 61 -75q30 -4 47 0q26 6 49 44q7 11 30 58l37 14q6 0 5 -6q-2 -18 -2 -15q0 -16 -16 -39q-17 -26 -19 -36q34 10 60 41q16 23 32 47q2 2 5 2q5 0 11.5 -8t6.5 -14zM400 367q-3 38 -24 86q-24 55 -52 69q36 -52 41 -153q5 2 17 0
q16 -2 18 -2zM317 376q2 34 -16 90q-20 67 -46 67q-5 0 -10 -3q-22 -10 -55 -59q-38 -58 -32 -103q9 2 48 1q32 -1 59 -3q3 -1 6 -1h46v11zM202 546q-77 -26 -103 -176l22 -3q5 65 25 107q16 35 56 72zM134 143q-8 28 -19 85q-2 22 -2 95l-18 2v-50q0 -86 39 -132z" />
    <glyph glyph-name="F" unicode="F" horiz-adv-x="458" 
d="M436 687q0 -2 -8.5 -17t-12.5 -15q-2 0 -31.5 18t-50.5 21q-29 3 -38 3q-31 0 -48 -20q-37 -44 -37 -131q0 -81 0 -79q13 -1 43 -4q16 -1 33 -2t17 -9q0 -10 -17 -24q-5 -4 -30 -4q-49 0 -45 1l4 -67l1 -113q4 -42 11 -156q1 -12 -10 -28t-20 -16q-9 -1 -11 30
q-2 28 -3 70l-8 199l4 78q-4 5 -11 5q-12 0 -13 -17q1 17 1 -19q4 -120 1 -188q-1 -14 1.5 -45t2.5 -41q0 -31 -12 -31q-7 0 -18 4.5t-12 11.5q-1 12 -1 142v92v80q-13 8 -38.5 7t-28.5 2q-9 9 -9 27q0 4 2 5q26 -4 69 1q0 91 0.5 103.5t9.5 38.5q45 142 205 142
q21 0 62 -17q46 -20 46 -38zM178 615q-9 -20 -22 -65q-5 -31 0 -85q13 -5 20 0q0 67 2 150z" />
    <glyph glyph-name="G" unicode="G" horiz-adv-x="495" 
d="M451 210v-40q-1 -26 -1 -40q0 -36 -5 -50q-9 -20 -41 -43q-31 -19 -126 -80q-11 -8 -62 -32q-61 -29 -77 -29q-24 0 -58.5 28t-34.5 52q0 16 17 25q14 8 27 8q6 0 17.5 -32t32.5 -32q27 0 132 64q88 54 108 71q13 11 14 19.5t3 10.5q-10 8 -36 6q-33 -2 -42 0
q-72 16 -117 57q-71 65 -73 183q0 29 13 90q3 14 12 44q23 55 62 77q11 6 35 14q51 18 97 10q10 -2 48 -15q4 24 7 47q4 29 20 31q5 -9 10 -66q1 -12 4 -78q9 -157 9 -205q2 -29 5 -95zM405 218q0 3 -3.5 26.5t-4.5 32.5q-4 113 -12 256q0 9 -12 10t-23 1q-45 5 -69 -33
q-13 -21 -28 -78q-7 -29 -3 -108q6 -110 23 -137q14 -22 34 -28q11 -4 54 -3q41 1 43 0zM240 533q-62 -41 -62 -159q0 -48 10 -92q12 -50 32 -66q-19 69 -19 163t39 154z" />
    <glyph glyph-name="H" unicode="H" horiz-adv-x="417" 
d="M396 86q0 -20 -24 -56q-26 12 -30 31q-6 26 -7.5 85t-9.5 89l-24 104q-22 71 -51 87q-10 5 -22 4q-12 -2 -24 -3q-23 -1 -42 -6q-8 -1 -22 -7q6 -22 6 -68t8.5 -137.5t8.5 -137.5q0 9 -9 -55l-16 -3q-2 0 -5 19q-4 23 -8 78q-6 98 -25 294q-18 -12 -18 -25q0 -25 8 -163
t9 -140l-30 -17l-15 6q-13 13 -14 51q1 -63 1 59q0 26 -4.5 74t-4.5 69q0 58 -3 174t-3 175q0 5 -3 15.5t-3 15.5q0 32 32 32q6 0 11 -46q3 -54 11 -162q2 -29 8 -89l17 13q-12 94 -12 247q0 44 19 63l14 -13q0 5 7 -32q8 -42 7.5 -125t6.5 -123q90 16 96 16q114 0 150 -260
q9 -72 9 -133z" />
    <glyph glyph-name="I" unicode="I" horiz-adv-x="302" 
d="M215 650q0 -19 -2 -23q-7 -14 -38 -19q-5 -2 -9 -2q-20 0 -20 44q0 26 8.5 33.5t38.5 7.5q11 0 17 -18q5 -13 5 -23zM275 79q0 -4 -5.5 -9.5t-10.5 -5.5q-3 0 -7.5 2.5t-7.5 2.5q3 0 -79.5 -1t-121.5 -1q0 1 -3 5.5t-3 8.5q0 12 23 16l26 4q9 20 9 24q0 128 -1.5 243
t-1.5 137q-11 0 -15.5 -1.5t-3.5 -1.5q-6 0 -11 6.5t-5 10.5q0 10 19 16.5t23 13.5q-3 15 2 26q2 2 5 4.5t7 2.5q11 0 16 -10q2 -6 5 -13q52 17 54 17q11 0 12 -21q-1 27 -2 -32l3 -237q5 -32 8 -91q4 -81 5 -94l14 3q8 0 27.5 -9.5t19.5 -15.5zM154 104v102q-1 26 -2 40
q0 12 0 11v175q-7 15 -5 50q1 49 1 48q-12 -6 -16 -6v-423q3 0 11.5 1.5t10.5 1.5z" />
    <glyph glyph-name="J" unicode="J" horiz-adv-x="383" 
d="M330 713q0 -20 -17 -42q-19 -25 -40 -25q-11 0 -18 9.5t-7 17.5q0 22 19 46.5t44 24.5q17 0 19 -31zM336 343q-1 -79 -6 -218q-15 -16 -55 -50q-16 -11 -37 -19.5t-42 -16.5q-17 -8 -31 -12q-58 -21 -90 -21q-3 0 -9 8t-10 11q0 9 7 13q64 20 111 48q68 41 68 81
q0 11 -3 207q2 48 -1 147q-1 10 -34 17v19q4 3 60 41q37 25 41 25q7 0 25 -19q6 -166 6 -261zM301 458q0 2 -3.5 43.5t-3.5 58.5q-2 3 -6 10q-12 -8 -13 -34q1 -20 1 -41q-3 -51 1 -192q4 -120 -5 -190q18 8 26 42q0 51 -1.5 74t-1.5 17v90q0 3 3 60.5t3 61.5z" />
    <glyph glyph-name="K" unicode="K" horiz-adv-x="391" 
d="M362 636q0 -11 -17.5 -32t-19.5 -32q-18 -22 -56 -64q-36 -36 -71 -72q-51 -55 -51 -64q0 -4 11 -18q15 -19 19 -24q27 -41 168 -234q0 -6 -4.5 -13t-8.5 -7t-9 -1.5t-8 -1.5q-10 0 -74 78q-45 54 -89 109q-2 0 -6 -5v-90q-1 -55 -8 -86q-8 0 -19 4q-10 44 -10 113
q0 99 -1 114.5t-21 18.5q10 -85 7 -133q-1 -30 -2.5 -60t-9.5 -41q-8 1 -24 7q-4 45 -9 147q0 23 1 112q0 82 4 228q0 12 -4 40.5t-4 29.5q0 23 22 23q9 0 16 -55v-41q2 -17 4 -54q1 -43 0 -119q0 -6 3 -10q11 3 14 65l-2 42q-3 64 -2 177q16 15 18 15q13 0 16 -28.5
t6 -56.5q6 -33 5 -90q-1 -56 0 -59q28 23 70 70q58 65 75 82q30 30 64 30q7 0 7 -14z" />
    <glyph glyph-name="L" unicode="L" horiz-adv-x="339" 
d="M308 82q-4 -25 -101 -25q-24 0 -58 1.5t-36 1.5q-11 0 -32.5 -3t-31.5 -3q-8 0 -23 6v5q0 21 37 21q12 0 27.5 6.5t15.5 17.5q0 240 -9 483l-1 33q0 6 -1 21q-2 6 -12 13.5t-12 15.5q-1 5 9 13q14 12 17.5 18t3.5 28q0 27 18 33q9 -6 9 -16q1 -13 5 -18q5 3 36 29
q21 18 39 24q5 -21 4 -52q-3 -55 -3 -52q0 -39 3 -105q4 -74 5 -113v-201q0 -14 1 -47q1 -15 5 -53q4 -30 4 -59q0 -8 2 -14q13 -4 79 -9zM168 92v33q0 89 -2 244q-3 148 -3 224q0 19 -3 56.5t-3 55.5q-10 -4 -26 -14v-232q1 -63 8 -190q5 -109 4 -174q10 -3 25 -3z" />
    <glyph glyph-name="M" unicode="M" horiz-adv-x="570" 
d="M537 330q0 -3 -1.5 -58t-1.5 -60v-99q0 -2 -6.5 -21t-9.5 -28q-25 -17 -24 -17q-3 0 -15 7q3 40 4 78q7 171 0 265q-7 99 -72 99q-34 0 -56 -24t-22 -59q0 -9 1 -17l-5.5 -3t-9.5 -3q-17 0 -32 10q1 43 -30 74q-29 28 -64 28q-34 0 -51 -16q-6 -23 -5 -60v-61
q-7 -96 -5 -127q3 -39 3 -123q0 -12 -6 -26t-15 -14q-3 0 -11 7q-8 12 -16 33q0 -4 2 64v60q-13 1 -20 -3v-16q0 6 -2 -43q-1 -42 0 -61q-8 -13 -15 -13t-17.5 8t-10.5 14q-5 48 -5 92q0 -5 2 28q2 39 3 111q1 52 3 95q-4 27 -4 79q1 7 6 25t5 27q21 0 22 1q10 -3 12 -28
q4 -38 6 -44q24 4 24 19q0 4 -3 13t-3 13q0 8 6 10.5t15 11.5q6 8 12 8q13 0 14.5 -21.5t11.5 -21.5q2 0 17 1.5t20 1.5t14 -1.5t13 -1.5q27 0 52 -11q35 -14 43 -41q18 25 35 36q43 27 64 27q73 0 103 -64q25 -55 25 -160zM89 301q0 73 -2 149q-2 -5 -17 -16q-1 -11 -1 -43
v-99q12 9 20 9z" />
    <glyph glyph-name="N" unicode="N" horiz-adv-x="480" 
d="M442 252q0 -19 -3.5 -57.5t-3.5 -58.5q0 -15 -6 -25q-25 -9 -34 -9q-19 0 -19 23q0 7 4 23t4 24q0 26 2 77t2 76q0 171 -93 171q-42 0 -79 -14q-49 -19 -49 -53q0 -22 3 -66.5t3 -67.5q0 -41 -3 -116q-3 -80 -3 -116q-1 -6 -7 -16q-7 -5 -16 0q-4 3 -8 13q-2 55 -7 166
q-12 2 -20 2q-10 0 -14 -53q-2 -34 -3 -68q0 -3 -13 0q-13 4 -13 9q0 94 -8 255q-9 165 -9 196q0 8 17 9q17 0 18 -8.5t8 -47.5q5 -28 5 -45q0 -8 4 -8q19 0 22 33q-1 -7 -1 47q0 35 14 34q26 -11 30 -29q1 -23 3 -45q74 37 128 37q12 0 51.5 -19t46.5 -28q19 -24 31 -62
l16 -68v-115zM124 397q0 -1 -4 26q-16 -6 -22 -12q0 -19 -1 -45v-40q0 -19 1 -51h23q3 140 3 122z" />
    <glyph glyph-name="O" unicode="O" horiz-adv-x="409" 
d="M384 268q-9 -81 -9 -84q-8 -42 -33 -76q-10 -12 -35 -37q-39 -30 -93 -30q-7 0 -36 7q-34 9 -51 17q-25 11 -59 61q-16 22 -30 59q-13 34 -17 58q-4 22 0 88q1 31 12 98q14 50 21 67q12 32 37 58q49 53 97 62q12 2 23 2q49 0 91 -30t57 -79q19 -61 25 -132q5 -59 0 -109z
M341 409q-13 89 -49 138q-6 8 -28 19.5t-27 11.5q-87 0 -92 -159q-2 -34 -5 -67q-2 -37 2 -68q12 -97 20 -125q18 -65 54 -69q22 -3 28 -3q54 0 75 75q7 22 22 144q7 55 0 103zM114 516q-26 -39 -39 -110q-5 -30 -5 -44l-6 -54h12q11 -1 15 -1q7 0 6 38v58q6 55 17 113z
M118 135q0 9 -12 55q-10 41 -8 57h-28q12 -61 48 -112z" />
    <glyph glyph-name="P" unicode="P" horiz-adv-x="449" 
d="M427 324q0 -66 -42 -103q-24 -21 -98 -52q-22 -9 -59 -17q-19 -1 -57 -5q-6 -5 -6 -24q0 -11 2.5 -31t2.5 -24q0 -30 -2 -89t-2 -89q-6 -10 -14 -10q-22 0 -22 71q0 21 2 50.5t2 32.5q0 20 -2.5 62t-2.5 62l-15 3q0 -30 -3 -109q-2 -67 -1 -142q1 -47 -7 -70h-16
q-19 17 -19 150q0 44 2 108.5t2 72.5q0 23 -4.5 68t-4.5 67q0 49 -1.5 146t-1.5 146q0 5 10 14.5t15 9.5q21 0 26 -38l4 -56l13 8l2 38q1 30 8 34q19 -2 20 -19.5t2 -32.5q2 -8 10 -8q15 0 47.5 10t50.5 10q78 0 123 -87q36 -70 36 -157zM361 326q0 72 -22 125
q-31 71 -93 71q-47 0 -79 -22q-7 -173 -7 -189q0 -33 7 -121q25 0 80 11q69 26 80 35q34 26 34 90zM133 327q1 30 -2 75t-2 77q-23 -1 -23 -44q0 -41 2 -73q3 -44 3 -58q1 -36 2 -99q4 -7 12 -7q1 0 6 85q1 13 2 44z" />
    <glyph glyph-name="Q" unicode="Q" horiz-adv-x="435" 
d="M484 14q8 0 8 -14t-7 -32t-15 -23q-8 -9 -60 -56q-33 -28 -53 -28q-16 0 -30.5 17.5t-18 36.5t-6.5 37.5t-3 92.5q0 22 -5 47q-2 16 2 20q-10 9 -36 7q-33 -2 -42 0q-72 15 -117 56q-71 66 -73 184q0 28 13 90q3 14 12 43q24 55 62 77q11 6 35 15q51 17 97 9
q10 -1 48 -14q1 3 5 39q2 23 14 28q12 -11 13.5 -24.5t2.5 -27t5 -78.5q8 -158 8 -206q2 -28 5 -92q1 -17 0 -40v-39q0 -20 -2 -45t-2 -57q0 -86 22 -112q3 -3 7 -3q13 0 56.5 46t54.5 46zM304 220q0 4 -3.5 27t-3.5 33q-5 113 -13 255q0 9 -12 10t-23 2q-45 5 -69 -33
q-13 -21 -28 -79q-7 -28 -3 -107q6 -111 23 -137q14 -22 34 -28q11 -4 53 -3.5t44 -0.5zM139 536q-62 -41 -62 -159q0 -49 10 -92q12 -51 32 -67q-19 69 -19 163q0 95 39 155z" />
    <glyph glyph-name="R" unicode="R" horiz-adv-x="466" 
d="M444 476q0 -16 -10 -28t-26 -12q-18 0 -18 21q0 6 1 16t1 14q0 20 -15 27q-9 3 -34 3q-97 0 -149 -45q24 -259 23 -359v-29q-44 -20 -76 -20q-3 0 -7 9q-12 32 -18 85q-4 44 -9 87q-6 83 -20 247q-6 24 -13 72q8 20 16 27q17 -18 38 -103q7 7 23 19q1 15 -1 40
q-2 32 -2 40q0 27 16 27q10 0 17 -34q4 -23 8 -45q38 8 75 17q45 10 78 10q102 0 102 -86zM169 319q0 33 -13 110l-6 10q-16 -12 -16 -26q0 -45 10 -134t11 -132l10 9z" />
    <glyph glyph-name="S" unicode="S" horiz-adv-x="351" 
d="M330 138q0 -41 -48 -74q-9 -7 -35 -16q-30 -10 -69 -10q-47 0 -58 3q-26 6 -48.5 20t-22.5 26q0 17 13 17q3 0 19.5 -8.5t20 -8.5t35 -7.5t35.5 -7.5q47 0 47 73q0 30 -17 89.5t-29 69.5l-58 40q-39 27 -47 45q-14 31 -14 70q0 36 17 71q20 42 54 62q21 13 60 13
q30 0 69 -19q44 -22 44 -47q0 -14 -13 -14q-4 0 -35 22q-26 18 -61 18q-32 0 -24 -95q8 -88 30 -126q7 -12 34 -33t39 -37q62 -80 62 -136zM137 385q-8 45 -8 80q0 56 8 80q-37 -41 -37 -89q0 -19 9 -39q11 -24 28 -32zM272 161q0 69 -42 103q19 -57 23 -102q0 1 -6 -67
q25 17 25 66z" />
    <glyph glyph-name="T" unicode="T" horiz-adv-x="359" 
d="M344 564q-24 -9 -129 -11h-26l3 -229q-1 -23 1 -74l10 -92q11 -48 52 -48l54 12l18 -7q-1 -14 -36 -24q-27 -8 -46 -8q-94 0 -131 45q-32 40 -35 136q-1 18 -4 86q-4 54 -4 87q0 98 3 102q-2 1 -23 6q-14 4 -14 15q0 12 7 20q4 5 15 6.5t14 2.5q5 65 5 57q0 26 11 96
q10 -2 29 -10q4 -62 3 -140q9 1 14 1q6 0 17 -2q2 45 4 91q2 58 14 89h16q-1 -1 3 -107q-1 -32 2 -73q21 1 38 -1q26 -4 32 -4q39 0 83 -2v-20zM175 135q-17 41 -27 180q-3 45 1 100q4 73 4 105q0 22 -8 27q-15 0 -24 -3q-3 -65 -1 -213q6 -97 11 -123q12 -64 44 -73z" />
    <glyph glyph-name="U" unicode="U" horiz-adv-x="472" 
d="M426 159q0 -23 -3.5 -60t-3.5 -54q-4 0 -14.5 -4t-14.5 -4q-5 0 -6 5q-9 24 -9 43q0 42 -40 42q-48 0 -82 8q-56 13 -79 23q-37 15 -66.5 48.5t-51.5 135.5q-21 94 -21 174q0 39 22 39q12 0 24 -51q10 -42 10 -62q0 12 9 -79q10 0 22 -3v11q1 24 -4.5 70.5t-5.5 66.5
q0 16 10.5 34t19.5 18q6 0 9 -10q24 -80 24 -162q0 -88 21 -134q29 -62 102 -77q20 -1 64 -7l4 22q5 31 5 96q0 41 -3 123t-3 124q15 4 22 4q13 0 21 -16t8 -32q0 -110 4 -191q5 -92 6 -141zM158 220q-9 18 -16 49q-5 25 -10 51h-22q13 -42 48 -100z" />
    <glyph glyph-name="V" unicode="V" horiz-adv-x="495" 
d="M460 601q0 -6 -9 -49q-10 -47 -17 -67q-28 -82 -59 -150q-27 -57 -37 -96q-9 -32 -37 -91q-20 -39 -39 -78q-6 -13 -22 -13q-4 0 -14 9.5t-23.5 6.5t-18.5 9q-8 29 -28 95q-25 73 -51 192q-24 110 -47 220q5 4 24 11q36 -93 67 -204q17 -69 34 -139q23 -92 44 -146
q13 12 13 26q0 -9 -43 140q-2 18 -9 50q-10 31 -26 86q-46 179 -46 177q0 7 9 19t13 12q9 0 14.5 -21.5t4.5 -30.5l100 -388q9 4 22 37q19 48 19 49q13 25 25 62q11 31 21 62q30 82 60 184q3 10 28 19q2 5 8 16q5 0 13 4q0 -1 3.5 -4.5t3.5 -8.5z" />
    <glyph glyph-name="W" unicode="W" horiz-adv-x="775" 
d="M756 581q0 -7 -9 -50q-10 -46 -17 -66q-27 -82 -59 -151q-27 -56 -37 -95q-9 -32 -37 -91q-19 -39 -39 -78q-6 -13 -22 -13q-4 0 -15.5 8t-25 5t-18.5 9q-7 31 -25 97q-27 79 -57 223q-16 -35 -32 -69.5t-25 -70.5q-9 -32 -37 -91q-20 -39 -39 -78q-6 -13 -22 -13
q-4 0 -14 9.5t-23.5 6.5t-18.5 9q-8 29 -28 95q-25 73 -51 192q-24 110 -47 220q5 4 24 11q36 -93 67 -204q17 -69 34 -139q23 -92 44 -146q13 12 13 26q0 -9 -43 140q-2 18 -9 50q-10 31 -26 86q-46 179 -46 177q0 7 9 19t13 12q9 0 14.5 -21.5t4.5 -30.5l102 -380
q10 4 21 33q9 22 18 45q13 25 25 62q11 31 21 62q18 49 30 85q-11 53 -20 92q5 5 24 12q9 -22 16 -41l10 36q5 16 25 23q7 5 16 12q3 1 8 4q0 -1 3.5 -4.5t3.5 -8.5l-4 -15.5t-4 -25.5q1 -2 5 -21q20 -92 102 -363q10 4 19 29l16 41q13 25 25 63q11 31 21 61q31 83 61 184
q3 10 27 20q2 5 9 16l12 4q7 -6 7 -13zM536 117q0 2 -40 140q-2 18 -9 51q-11 30 -29 85q-7 28 -24 91q-6 -16 -11 -32q10 -32 22 -76q17 -70 34 -139q23 -92 44 -147q13 12 13 27z" />
    <glyph glyph-name="X" unicode="X" horiz-adv-x="515" 
d="M477 83q-2 -8 -7 -24h-15q-13 0 -42 48l-40 68q-7 -4 -24 -14q19 -26 57 -89q5 -9 1 -23q-4 -13 -13 -19q-8 2 -30 15q-11 7 -21 25q-15 30 -19 36q-16 25 -46 73q-8 16 -24 46q-9 16 -14 19t-16 16q-18 -12 -26 -26q-15 -27 -19 -34q-11 -14 -33 -44q-17 -28 -33 -56
q-31 -49 -43 -49q-6 0 -14.5 9.5t-8.5 15.5q0 8 21 55q27 62 64 104q59 68 59 76q0 2 -29 39q-33 43 -48 78q-4 9 -42 72q-29 48 -29 70q0 10 13 10q4 0 22.5 -17.5t29.5 -33.5q35 -54 102 -160q1 -16 11 -19q19 12 19 22q0 2 -38 57q-46 67 -71 109q-13 21 -31 61
q-5 15 -5 10q0 18 16 18q4 0 23 -16q36 -29 55 -76q16 -37 41 -66q29 -33 41 -55q39 56 146 200q10 14 27 14q16 0 19 -18q0 -5 -100 -143q-10 -13 -36 -55q-10 -10 -32 -42zM340 222q0 10 -75 102q-1 -1 -7 -10t-6 -12t24 -33q32 -39 48 -63q16 9 16 16z" />
    <glyph glyph-name="Y" unicode="Y" horiz-adv-x="477" 
d="M429 148q0 -52 -2 -68q-9 -61 -11 -66q-9 -32 -40 -54q-36 -26 -126 -55q-83 -27 -118 -27q-25 0 -61 28q-40 28 -40 53q0 15 19 28q16 12 29 12q8 0 20 -23q15 -29 30 -41q6 -5 21 -5q36 0 112 29q65 26 77 36q31 27 37 66q3 21 0 30q-9 25 -38 25q-48 0 -81 8
q-57 12 -80 22q-37 16 -66.5 49.5t-51.5 134.5q-21 95 -21 174q0 40 22 40q12 0 24 -51q10 -43 10 -62q0 12 10 -79q9 0 21 -3l-3 51q-6 111 -6 97q0 16 10 33.5t19 17.5q7 0 9 -9q24 -80 24 -163q0 -87 21 -134q29 -62 102 -76q20 -2 64 -7l4 21q5 32 5 96q0 41 -2.5 123.5
t-2.5 124.5q14 3 21 3q14 0 21.5 -15.5t7.5 -31.5q0 -110 4 -191q5 -92 6 -141zM161 208q-17 36 -19 42q-8 24 -7 58h-22q1 -49 17 -66.5t31 -33.5z" />
    <glyph glyph-name="Z" unicode="Z" horiz-adv-x="541" 
d="M474 593q-9 -27 -46 -73.5t-74 -109t-72 -106.5q-86 -107 -129 -189q12 4 19 4q10 0 44 -3t55 -3q7 0 18.5 1t19.5 1q11 -2 37 -3q13 0 32.5 2.5t30.5 2.5q7 0 17 -6.5t10 -10.5q0 -3 -3 -4q-49 -19 -81.5 -19t-99 -6t-103.5 -6q-23 0 -37 -2q-12 -15 -33 -13q1 4 1 8
t-5 4q-4 1 -12 0q-9 -1 -10 -1q-18 0 -29 12q3 40 235 399q26 32 74 100h-39q-43 0 -116 -6q-67 -6 -109 -6q-16 0 -42 15q8 17 31 20q-7 -1 39 -1q14 0 27.5 3t28.5 3q44 0 125 5q88 5 125 6q5 -3 13 -11q3 -6 2 -14q-1 -7 -14 -15q-37 -39 -65 -86q-31 -53 -62 -88
q17 -2 25 -2q2 0 18 22q32 44 101 148q21 31 37 46h16q2 -12 0 -18zM261 339l-6 7q-7 -1 -20 -9q-12 -23 -39 -66q-24 -30 -53 -79l-48 -82q19 11 84 106q41 61 82 123z" />
    <glyph glyph-name="bracketleft" unicode="[" horiz-adv-x="252" 
d="M215 76q-8 -27 -19 -27q-2 0 -12.5 1.5t-20.5 1.5q-30 0 -44 -4q-2 -2 -4 -20q-2 -13 -12 -13q-9 0 -22 28q-36 -9 -39 -9q-5 0 -12.5 10.5t-7.5 15.5q-1 83 -2 247q-1 44 -3 183q-2 113 -2 182q0 52 48 52q2 2 8 19t14 17q13 0 15 -17q1 -13 1 -27l69 1q1 0 25 -12
q2 -23 -17.5 -27.5t-38.5 -7.5l-20 3v-30q0 -18 2 -49.5t2 -49.5q0 -46 3 -162q2 -102 1 -162q-1 -48 -1 -75q0 -49 1 -49q5 -1 46 -5q28 -2 42 -15zM90 265q0 19 -5 78q-4 51 -2 88q-2 48 0 150q0 5 -6 91q-10 2 -20 5q-7 -45 -7 -58q0 -24 6 -73t6 -74l-1 -278
q0 -20 2 -94v-10l20 -1q0 8 2 27t2 27q0 21 1.5 62t1.5 60z" />
    <glyph glyph-name="backslash" unicode="\" horiz-adv-x="370" 
d="M19 750q0 -14 52 -116q12 -53 50 -159t50 -158q5 -10 13 -32q21 -53 58 -163q12 -31 34 -90q3 -10 15 -10l14 -3q7 0 31 15q-21 90 -78 226q-17 42 -51 151q-38 121 -53 162q-19 60 -58 159q-23 43 -41 43q-5 0 -20.5 -10.5t-15.5 -14.5z" />
    <glyph glyph-name="bracketright" unicode="]" horiz-adv-x="252" 
d="M215 103q0 -52 -47 -51q-3 -3 -9 -20t-13 -17q-13 0 -16 17v27l-70 -1l-24 12q-2 23 18 29q19 3 37 7l21 -4v30q0 18 -2 49.5t-2 49.5q0 46 -3 162q-3 102 -2 162q2 48 2 75l-1 49q-5 1 -47 5q-28 2 -42 15q9 27 19 27q2 0 13 -1.5t21 -1.5q30 0 43 4q3 2 5 20
q1 13 12 13q9 0 22 -28q36 9 39 9q5 0 12.5 -10.5t7.5 -15.5q1 -82 2 -247q0 -44 2 -183q2 -113 2 -182zM181 156q0 25 -6 73.5t-6 73.5v278q0 20 -1 94v10l-21 1q1 -8 -1 -27t-2 -27q0 -21 -1.5 -62t-1.5 -60t5 -78q4 -51 1 -88q2 -47 1 -150q0 -5 6 -91q9 -2 20 -5
q7 45 7 58z" />
    <glyph glyph-name="asciicircum" unicode="^" 
d="M506 400q0 -92 -48 -149q-51 -61 -139 -61q-5 0 -26 4t-26 4q-64 0 -107 76q-33 58 -33 106q0 73 57 141q63 76 149 76h23q32 0 56 -22q66 -60 79 -84q15 -27 15 -91zM450 392q0 21 -15 50q-12 21 -19 27q-35 -50 -70 -101q-44 -65 -61 -117q11 -5 13 -6t11 0q15 1 32 1
q41 0 77 58q32 51 32 88zM382 531q-21 14 -41 14q-64 0 -110 -58q-44 -54 -44 -117q0 -55 30 -80q53 81 165 241z" />
    <glyph glyph-name="underscore" unicode="_" horiz-adv-x="440" 
d="M432 56q-2 -12 -46 -19q0 -4 -10.5 -11.5t-18.5 -7.5q-5 0 -45.5 5t-46.5 5q-5 0 -36.5 -1.5t-37.5 -1.5q-63 0 -100.5 -3.5t-30.5 -3.5q-5 0 -13.5 -1.5t-13.5 -1.5q-7 0 -13.5 16t-6.5 22q0 8 2 16q24 11 63 12q171 6 198 6q35 0 84 -8q62 -9 72 -23z" />
    <glyph glyph-name="grave" unicode="`" horiz-adv-x="238" 
d="M167 548q-9 -10 -25 -10q-11 0 -39 31q-24 26 -27.5 33.5t-3.5 30.5q0 16 2 21q12 11 57 11q20 0 22 -28l2 -40q-2 -4 -17 -12q11 -11 29 -37z" />
    <glyph glyph-name="a" unicode="a" horiz-adv-x="377" 
d="M356 83q0 -9 -9.5 -26.5t-16.5 -20.5l-10 21q-5 13 -15 35q-6 -3 -19 -6q-30 -7 -65 -4q-55 5 -101 35q-78 51 -78 139q0 115 69 175q43 38 124 38q50 0 55 -9q0 10 1.5 31.5t1.5 32.5q0 41 -34 64q-29 20 -71 20q-44 0 -60 -11q-15 -16 -29 -31q-2 -2 -10 -15
q-4 -8 -9 -6q-2 2 -13 3.5t-11 5.5q0 34 45 68q42 32 78 32q157 0 163 -173q2 -87 2 -267q0 -21 6 -65.5t6 -65.5zM304 149q0 36 -3 61q-4 41 -5 47q-3 46 -4 86q-1 74 0 85q-11 1 -33 5.5t-33 4.5q-28 0 -40 -15q-37 -43 -37 -170q0 -77 37 -110q29 -25 53 -25q18 0 62 6
q0 4 1.5 12.5t1.5 12.5zM134 154q-23 66 -23 121q0 13 16 111q-12 -20 -33 -69q-10 -37 -6 -69q10 -77 46 -94z" />
    <glyph glyph-name="b" unicode="b" horiz-adv-x="420" 
d="M385 261q0 -51 -44 -114.5t-91 -83.5q-7 -3 -83 -18q-3 -13 -13 -39q-10 7 -24 39q-12 -1 -36 -6.5t-36 -5.5q-19 0 -19 110q0 31 1.5 74.5t1.5 46.5q0 11 -4.5 33t-4.5 33q0 60 -3 179t-3 178q0 5 -3 16t-3 16q0 4 13 32l25 7l5 -8q5 -160 13 -265q1 -18 7 -37
q10 7 18 13q-12 97 -12 254q0 45 19 64q10 -6 14 -13q0 5 7 -33q8 -43 7.5 -128t6.5 -126q10 1 30 11q17 8 38 8q13 0 31 -3q71 -10 111 -94q31 -67 31 -140zM328 273q0 32 -8 69q-16 65 -51 86q-38 23 -76 19q-20 -2 -49 -18q5 -23 5 -159q0 -100 19 -186q49 0 96 41
q64 56 64 148zM128 78l-3 61q-10 167 -21 279q-20 -9 -20 -26q0 -74 3 -163q1 -25 6 -87q4 -48 3 -63q0 -5 6 -6q5 0 13 1.5t13 3.5z" />
    <glyph glyph-name="c" unicode="c" horiz-adv-x="330" 
d="M303 99q-25 -24 -64 -26q-75 -5 -137 47.5t-71 128.5q-9 71 -2 121q0 3 14 68q12 57 72 97t123 40q45 0 61 -21q7 -9 7 -14q0 -12 -13 -5q-22 11 -55 6q-52 -9 -69 -50q-14 -35 -25 -170q-2 -20 -2 -39q0 -60 22 -139q9 -33 79 -33q8 0 57 8q12 2 12 -6q0 -5 -9 -13z
M126 496q-17 -6 -37 -61q-22 -58 -22 -108q-1 -59 40 -146q-7 53 -9 81q-2 37 3 96q7 94 25 138z" />
    <glyph glyph-name="d" unicode="d" horiz-adv-x="377" 
d="M340 87q1 -30 -36 -30q-8 0 -11 14q-3 19 -4 21q-6 -3 -19 -6q-17 -4 -62 0q-78 5 -125 47q-57 51 -57 123q0 99 46 154q50 59 147 59q51 0 55 -9q0 112 1 161q2 128 15 144q7 -5 14 -24t12 -25q9 -10 10 -55v-83q-1 -45 0 -145q5 -115 14 -346zM288 149q0 33 -4 70
q-4 41 -5 64v63q0 7 -3 43q-2 23 0 39q-11 0 -33 4.5t-33 4.5q-77 0 -77 -184q0 -53 18 -89q24 -47 72 -47q18 0 62 7q0 4 1.5 12.5t1.5 12.5zM118 154q-23 66 -23 121q0 13 16 110q-12 -20 -33 -69q-6 -21 -6 -68q0 -23 14 -54t32 -40z" />
    <glyph glyph-name="e" unicode="e" horiz-adv-x="489" 
d="M470 195q0 -59 -93 -102q-78 -36 -139 -36q-10 0 -15 1q-75 22 -104 39q-76 41 -76 253q0 86 44 157q49 78 124 84q34 3 45 0q26 -5 21 -5q64 0 118 -80q50 -72 50 -140q0 -34 -6.5 -36.5t-31.5 -1.5q-29 2 -49 -1l-7 -10q-9 -10 -28 -21q-3 13 -16 29h-64q-68 0 -93 -3
q-1 -6 -1 -45q0 -48 14 -95q20 -70 61 -75q30 -4 47 0q26 6 49 44q7 11 30 58l37 14q6 0 5 -6q-2 -18 -2 -15q0 -16 -16 -39q-17 -26 -19 -36q34 10 60 41q16 23 32 47q2 2 5 2q5 0 11.5 -8t6.5 -14zM400 367q-3 38 -24 86q-24 55 -52 69q36 -52 41 -153q5 2 17 0
q16 -2 18 -2zM317 376q2 34 -16 90q-20 67 -46 67q-5 0 -10 -3q-22 -10 -55 -59q-38 -58 -32 -103q9 2 48 1q32 -1 59 -3q3 -1 6 -1h46v11zM202 546q-77 -26 -103 -176l22 -3q5 65 25 107q16 35 56 72zM134 143q-8 28 -19 85q-2 22 -2 95l-18 2v-50q0 -86 39 -132z" />
    <glyph glyph-name="f" unicode="f" horiz-adv-x="458" 
d="M436 687q0 -2 -8.5 -17t-12.5 -15q-2 0 -31.5 18t-50.5 21q-29 3 -38 3q-31 0 -48 -20q-37 -44 -37 -131q0 -81 0 -79q13 -1 43 -4q16 -1 33 -2t17 -9q0 -10 -17 -24q-5 -4 -30 -4q-49 0 -45 1l4 -67l1 -113q4 -42 11 -156q1 -12 -10 -28t-20 -16q-9 -1 -11 30
q-2 28 -3 70l-8 199l4 78q-4 5 -11 5q-12 0 -13 -17q1 17 1 -19q4 -120 1 -188q-1 -14 1.5 -45t2.5 -41q0 -31 -12 -31q-7 0 -18 4.5t-12 11.5q-1 12 -1 142v92v80q-13 8 -38.5 7t-28.5 2q-9 9 -9 27q0 4 2 5q26 -4 69 1q0 91 0.5 103.5t9.5 38.5q45 142 205 142
q21 0 62 -17q46 -20 46 -38zM178 615q-9 -20 -22 -65q-5 -31 0 -85q13 -5 20 0q0 67 2 150z" />
    <glyph glyph-name="g" unicode="g" horiz-adv-x="495" 
d="M451 210v-40q-1 -26 -1 -40q0 -36 -5 -50q-9 -20 -41 -43q-31 -19 -126 -80q-11 -8 -62 -32q-61 -29 -77 -29q-24 0 -58.5 28t-34.5 52q0 16 17 25q14 8 27 8q6 0 17.5 -32t32.5 -32q27 0 132 64q88 54 108 71q13 11 14 19.5t3 10.5q-10 8 -36 6q-33 -2 -42 0
q-72 16 -117 57q-71 65 -73 183q0 29 13 90q3 14 12 44q23 55 62 77q11 6 35 14q51 18 97 10q10 -2 48 -15q4 24 7 47q4 29 20 31q5 -9 10 -66q1 -12 4 -78q9 -157 9 -205q2 -29 5 -95zM405 218q0 3 -3.5 26.5t-4.5 32.5q-4 113 -12 256q0 9 -12 10t-23 1q-45 5 -69 -33
q-13 -21 -28 -78q-7 -29 -3 -108q6 -110 23 -137q14 -22 34 -28q11 -4 54 -3q41 1 43 0zM240 533q-62 -41 -62 -159q0 -48 10 -92q12 -50 32 -66q-19 69 -19 163t39 154z" />
    <glyph glyph-name="h" unicode="h" horiz-adv-x="417" 
d="M396 86q0 -20 -24 -56q-26 12 -30 31q-6 26 -7.5 85t-9.5 89l-24 104q-22 71 -51 87q-10 5 -22 4q-12 -2 -24 -3q-23 -1 -42 -6q-8 -1 -22 -7q6 -22 6 -68t8.5 -137.5t8.5 -137.5q0 9 -9 -55l-16 -3q-2 0 -5 19q-4 23 -8 78q-6 98 -25 294q-18 -12 -18 -25q0 -25 8 -163
t9 -140l-30 -17l-15 6q-13 13 -14 51q1 -63 1 59q0 26 -4.5 74t-4.5 69q0 58 -3 174t-3 175q0 5 -3 15.5t-3 15.5q0 32 32 32q6 0 11 -46q3 -54 11 -162q2 -29 8 -89l17 13q-12 94 -12 247q0 44 19 63l14 -13q0 5 7 -32q8 -42 7.5 -125t6.5 -123q90 16 96 16q114 0 150 -260
q9 -72 9 -133z" />
    <glyph glyph-name="i" unicode="i" horiz-adv-x="302" 
d="M215 650q0 -19 -2 -23q-7 -14 -38 -19q-5 -2 -9 -2q-20 0 -20 44q0 26 8.5 33.5t38.5 7.5q11 0 17 -18q5 -13 5 -23zM275 79q0 -4 -5.5 -9.5t-10.5 -5.5q-3 0 -7.5 2.5t-7.5 2.5q3 0 -79.5 -1t-121.5 -1q0 1 -3 5.5t-3 8.5q0 12 23 16l26 4q9 20 9 24q0 128 -1.5 243
t-1.5 137q-11 0 -15.5 -1.5t-3.5 -1.5q-6 0 -11 6.5t-5 10.5q0 10 19 16.5t23 13.5q-3 15 2 26q2 2 5 4.5t7 2.5q11 0 16 -10q2 -6 5 -13q52 17 54 17q11 0 12 -21q-1 27 -2 -32l3 -237q5 -32 8 -91q4 -81 5 -94l14 3q8 0 27.5 -9.5t19.5 -15.5zM154 104v102q-1 26 -2 40
q0 12 0 11v175q-7 15 -5 50q1 49 1 48q-12 -6 -16 -6v-423q3 0 11.5 1.5t10.5 1.5z" />
    <glyph glyph-name="j" unicode="j" horiz-adv-x="383" 
d="M330 713q0 -20 -17 -42q-19 -25 -40 -25q-11 0 -18 9.5t-7 17.5q0 22 19 46.5t44 24.5q17 0 19 -31zM336 343q-1 -79 -6 -218q-15 -16 -55 -50q-16 -11 -37 -19.5t-42 -16.5q-17 -8 -31 -12q-58 -21 -90 -21q-3 0 -9 8t-10 11q0 9 7 13q64 20 111 48q68 41 68 81
q0 11 -3 207q2 48 -1 147q-1 10 -34 17v19q4 3 60 41q37 25 41 25q7 0 25 -19q6 -166 6 -261zM301 458q0 2 -3.5 43.5t-3.5 58.5q-2 3 -6 10q-12 -8 -13 -34q1 -20 1 -41q-3 -51 1 -192q4 -120 -5 -190q18 8 26 42q0 51 -1.5 74t-1.5 17v90q0 3 3 60.5t3 61.5z" />
    <glyph glyph-name="k" unicode="k" horiz-adv-x="391" 
d="M362 636q0 -11 -17.5 -32t-19.5 -32q-18 -22 -56 -64q-36 -36 -71 -72q-51 -55 -51 -64q0 -4 11 -18q15 -19 19 -24q27 -41 168 -234q0 -6 -4.5 -13t-8.5 -7t-9 -1.5t-8 -1.5q-10 0 -74 78q-45 54 -89 109q-2 0 -6 -5v-90q-1 -55 -8 -86q-8 0 -19 4q-10 44 -10 113
q0 99 -1 114.5t-21 18.5q10 -85 7 -133q-1 -30 -2.5 -60t-9.5 -41q-8 1 -24 7q-4 45 -9 147q0 23 1 112q0 82 4 228q0 12 -4 40.5t-4 29.5q0 23 22 23q9 0 16 -55v-41q2 -17 4 -54q1 -43 0 -119q0 -6 3 -10q11 3 14 65l-2 42q-3 64 -2 177q16 15 18 15q13 0 16 -28.5
t6 -56.5q6 -33 5 -90q-1 -56 0 -59q28 23 70 70q58 65 75 82q30 30 64 30q7 0 7 -14z" />
    <glyph glyph-name="l" unicode="l" horiz-adv-x="339" 
d="M308 82q-4 -25 -101 -25q-24 0 -58 1.5t-36 1.5q-11 0 -32.5 -3t-31.5 -3q-8 0 -23 6v5q0 21 37 21q12 0 27.5 6.5t15.5 17.5q0 240 -9 483l-1 33q0 6 -1 21q-2 6 -12 13.5t-12 15.5q-1 5 9 13q14 12 17.5 18t3.5 28q0 27 18 33q9 -6 9 -16q1 -13 5 -18q5 3 36 29
q21 18 39 24q5 -21 4 -52q-3 -55 -3 -52q0 -39 3 -105q4 -74 5 -113v-201q0 -14 1 -47q1 -15 5 -53q4 -30 4 -59q0 -8 2 -14q13 -4 79 -9zM168 92v33q0 89 -2 244q-3 148 -3 224q0 19 -3 56.5t-3 55.5q-10 -4 -26 -14v-232q1 -63 8 -190q5 -109 4 -174q10 -3 25 -3z" />
    <glyph glyph-name="m" unicode="m" horiz-adv-x="570" 
d="M537 330q0 -3 -1.5 -58t-1.5 -60v-99q0 -2 -6.5 -21t-9.5 -28q-25 -17 -24 -17q-3 0 -15 7q3 40 4 78q7 171 0 265q-7 99 -72 99q-34 0 -56 -24t-22 -59q0 -9 1 -17l-5.5 -3t-9.5 -3q-17 0 -32 10q1 43 -30 74q-29 28 -64 28q-34 0 -51 -16q-6 -23 -5 -60v-61
q-7 -96 -5 -127q3 -39 3 -123q0 -12 -6 -26t-15 -14q-3 0 -11 7q-8 12 -16 33q0 -4 2 64v60q-13 1 -20 -3v-16q0 6 -2 -43q-1 -42 0 -61q-8 -13 -15 -13t-17.5 8t-10.5 14q-5 48 -5 92q0 -5 2 28q2 39 3 111q1 52 3 95q-4 27 -4 79q1 7 6 25t5 27q21 0 22 1q10 -3 12 -28
q4 -38 6 -44q24 4 24 19q0 4 -3 13t-3 13q0 8 6 10.5t15 11.5q6 8 12 8q13 0 14.5 -21.5t11.5 -21.5q2 0 17 1.5t20 1.5t14 -1.5t13 -1.5q27 0 52 -11q35 -14 43 -41q18 25 35 36q43 27 64 27q73 0 103 -64q25 -55 25 -160zM89 301q0 73 -2 149q-2 -5 -17 -16q-1 -11 -1 -43
v-99q12 9 20 9z" />
    <glyph glyph-name="n" unicode="n" horiz-adv-x="480" 
d="M442 252q0 -19 -3.5 -57.5t-3.5 -58.5q0 -15 -6 -25q-25 -9 -34 -9q-19 0 -19 23q0 7 4 23t4 24q0 26 2 77t2 76q0 171 -93 171q-42 0 -79 -14q-49 -19 -49 -53q0 -22 3 -66.5t3 -67.5q0 -41 -3 -116q-3 -80 -3 -116q-1 -6 -7 -16q-7 -5 -16 0q-4 3 -8 13q-2 55 -7 166
q-12 2 -20 2q-10 0 -14 -53q-2 -34 -3 -68q0 -3 -13 0q-13 4 -13 9q0 94 -8 255q-9 165 -9 196q0 8 17 9q17 0 18 -8.5t8 -47.5q5 -28 5 -45q0 -8 4 -8q19 0 22 33q-1 -7 -1 47q0 35 14 34q26 -11 30 -29q1 -23 3 -45q74 37 128 37q12 0 51.5 -19t46.5 -28q19 -24 31 -62
l16 -68v-115zM124 397q0 -1 -4 26q-16 -6 -22 -12q0 -19 -1 -45v-40q0 -19 1 -51h23q3 140 3 122z" />
    <glyph glyph-name="o" unicode="o" horiz-adv-x="409" 
d="M384 268q-9 -81 -9 -84q-8 -42 -33 -76q-10 -12 -35 -37q-39 -30 -93 -30q-7 0 -36 7q-34 9 -51 17q-25 11 -59 61q-16 22 -30 59q-13 34 -17 58q-4 22 0 88q1 31 12 98q14 50 21 67q12 32 37 58q49 53 97 62q12 2 23 2q49 0 91 -30t57 -79q19 -61 25 -132q5 -59 0 -109z
M341 409q-13 89 -49 138q-6 8 -28 19.5t-27 11.5q-87 0 -92 -159q-2 -34 -5 -67q-2 -37 2 -68q12 -97 20 -125q18 -65 54 -69q22 -3 28 -3q54 0 75 75q7 22 22 144q7 55 0 103zM114 516q-26 -39 -39 -110q-5 -30 -5 -44l-6 -54h12q11 -1 15 -1q7 0 6 38v58q6 55 17 113z
M118 135q0 9 -12 55q-10 41 -8 57h-28q12 -61 48 -112z" />
    <glyph glyph-name="p" unicode="p" horiz-adv-x="449" 
d="M427 324q0 -66 -42 -103q-24 -21 -98 -52q-22 -9 -59 -17q-19 -1 -57 -5q-6 -5 -6 -24q0 -11 2.5 -31t2.5 -24q0 -30 -2 -89t-2 -89q-6 -10 -14 -10q-22 0 -22 71q0 21 2 50.5t2 32.5q0 20 -2.5 62t-2.5 62l-15 3q0 -30 -3 -109q-2 -67 -1 -142q1 -47 -7 -70h-16
q-19 17 -19 150q0 44 2 108.5t2 72.5q0 23 -4.5 68t-4.5 67q0 49 -1.5 146t-1.5 146q0 5 10 14.5t15 9.5q21 0 26 -38l4 -56l13 8l2 38q1 30 8 34q19 -2 20 -19.5t2 -32.5q2 -8 10 -8q15 0 47.5 10t50.5 10q78 0 123 -87q36 -70 36 -157zM361 326q0 72 -22 125
q-31 71 -93 71q-47 0 -79 -22q-7 -173 -7 -189q0 -33 7 -121q25 0 80 11q69 26 80 35q34 26 34 90zM133 327q1 30 -2 75t-2 77q-23 -1 -23 -44q0 -41 2 -73q3 -44 3 -58q1 -36 2 -99q4 -7 12 -7q1 0 6 85q1 13 2 44z" />
    <glyph glyph-name="q" unicode="q" horiz-adv-x="435" 
d="M484 14q8 0 8 -14t-7 -32t-15 -23q-8 -9 -60 -56q-33 -28 -53 -28q-16 0 -30.5 17.5t-18 36.5t-6.5 37.5t-3 92.5q0 22 -5 47q-2 16 2 20q-10 9 -36 7q-33 -2 -42 0q-72 15 -117 56q-71 66 -73 184q0 28 13 90q3 14 12 43q24 55 62 77q11 6 35 15q51 17 97 9
q10 -1 48 -14q1 3 5 39q2 23 14 28q12 -11 13.5 -24.5t2.5 -27t5 -78.5q8 -158 8 -206q2 -28 5 -92q1 -17 0 -40v-39q0 -20 -2 -45t-2 -57q0 -86 22 -112q3 -3 7 -3q13 0 56.5 46t54.5 46zM304 220q0 4 -3.5 27t-3.5 33q-5 113 -13 255q0 9 -12 10t-23 2q-45 5 -69 -33
q-13 -21 -28 -79q-7 -28 -3 -107q6 -111 23 -137q14 -22 34 -28q11 -4 53 -3.5t44 -0.5zM139 536q-62 -41 -62 -159q0 -49 10 -92q12 -51 32 -67q-19 69 -19 163q0 95 39 155z" />
    <glyph glyph-name="r" unicode="r" horiz-adv-x="466" 
d="M444 476q0 -16 -10 -28t-26 -12q-18 0 -18 21q0 6 1 16t1 14q0 20 -15 27q-9 3 -34 3q-97 0 -149 -45q24 -259 23 -359v-29q-44 -20 -76 -20q-3 0 -7 9q-12 32 -18 85q-4 44 -9 87q-6 83 -20 247q-6 24 -13 72q8 20 16 27q17 -18 38 -103q7 7 23 19q1 15 -1 40
q-2 32 -2 40q0 27 16 27q10 0 17 -34q4 -23 8 -45q38 8 75 17q45 10 78 10q102 0 102 -86zM169 319q0 33 -13 110l-6 10q-16 -12 -16 -26q0 -45 10 -134t11 -132l10 9z" />
    <glyph glyph-name="s" unicode="s" horiz-adv-x="351" 
d="M330 138q0 -41 -48 -74q-9 -7 -35 -16q-30 -10 -69 -10q-47 0 -58 3q-26 6 -48.5 20t-22.5 26q0 17 13 17q3 0 19.5 -8.5t20 -8.5t35 -7.5t35.5 -7.5q47 0 47 73q0 30 -17 89.5t-29 69.5l-58 40q-39 27 -47 45q-14 31 -14 70q0 36 17 71q20 42 54 62q21 13 60 13
q30 0 69 -19q44 -22 44 -47q0 -14 -13 -14q-4 0 -35 22q-26 18 -61 18q-32 0 -24 -95q8 -88 30 -126q7 -12 34 -33t39 -37q62 -80 62 -136zM137 385q-8 45 -8 80q0 56 8 80q-37 -41 -37 -89q0 -19 9 -39q11 -24 28 -32zM272 161q0 69 -42 103q19 -57 23 -102q0 1 -6 -67
q25 17 25 66z" />
    <glyph glyph-name="t" unicode="t" horiz-adv-x="359" 
d="M344 564q-24 -9 -129 -11h-26l3 -229q-1 -23 1 -74l10 -92q11 -48 52 -48l54 12l18 -7q-1 -14 -36 -24q-27 -8 -46 -8q-94 0 -131 45q-32 40 -35 136q-1 18 -4 86q-4 54 -4 87q0 98 3 102q-2 1 -23 6q-14 4 -14 15q0 12 7 20q4 5 15 6.5t14 2.5q5 65 5 57q0 26 11 96
q10 -2 29 -10q4 -62 3 -140q9 1 14 1q6 0 17 -2q2 45 4 91q2 58 14 89h16q-1 -1 3 -107q-1 -32 2 -73q21 1 38 -1q26 -4 32 -4q39 0 83 -2v-20zM175 135q-17 41 -27 180q-3 45 1 100q4 73 4 105q0 22 -8 27q-15 0 -24 -3q-3 -65 -1 -213q6 -97 11 -123q12 -64 44 -73z" />
    <glyph glyph-name="u" unicode="u" horiz-adv-x="472" 
d="M426 159q0 -23 -3.5 -60t-3.5 -54q-4 0 -14.5 -4t-14.5 -4q-5 0 -6 5q-9 24 -9 43q0 42 -40 42q-48 0 -82 8q-56 13 -79 23q-37 15 -66.5 48.5t-51.5 135.5q-21 94 -21 174q0 39 22 39q12 0 24 -51q10 -42 10 -62q0 12 9 -79q10 0 22 -3v11q1 24 -4.5 70.5t-5.5 66.5
q0 16 10.5 34t19.5 18q6 0 9 -10q24 -80 24 -162q0 -88 21 -134q29 -62 102 -77q20 -1 64 -7l4 22q5 31 5 96q0 41 -3 123t-3 124q15 4 22 4q13 0 21 -16t8 -32q0 -110 4 -191q5 -92 6 -141zM158 220q-9 18 -16 49q-5 25 -10 51h-22q13 -42 48 -100z" />
    <glyph glyph-name="v" unicode="v" horiz-adv-x="495" 
d="M460 601q0 -6 -9 -49q-10 -47 -17 -67q-28 -82 -59 -150q-27 -57 -37 -96q-9 -32 -37 -91q-20 -39 -39 -78q-6 -13 -22 -13q-4 0 -14 9.5t-23.5 6.5t-18.5 9q-8 29 -28 95q-25 73 -51 192q-24 110 -47 220q5 4 24 11q36 -93 67 -204q17 -69 34 -139q23 -92 44 -146
q13 12 13 26q0 -9 -43 140q-2 18 -9 50q-10 31 -26 86q-46 179 -46 177q0 7 9 19t13 12q9 0 14.5 -21.5t4.5 -30.5l100 -388q9 4 22 37q19 48 19 49q13 25 25 62q11 31 21 62q30 82 60 184q3 10 28 19q2 5 8 16q5 0 13 4q0 -1 3.5 -4.5t3.5 -8.5z" />
    <glyph glyph-name="w" unicode="w" horiz-adv-x="775" 
d="M756 581q0 -7 -9 -50q-10 -46 -17 -66q-27 -82 -59 -151q-27 -56 -37 -95q-9 -32 -37 -91q-19 -39 -39 -78q-6 -13 -22 -13q-4 0 -15.5 8t-25 5t-18.5 9q-7 31 -25 97q-27 79 -57 223q-16 -35 -32 -69.5t-25 -70.5q-9 -32 -37 -91q-20 -39 -39 -78q-6 -13 -22 -13
q-4 0 -14 9.5t-23.5 6.5t-18.5 9q-8 29 -28 95q-25 73 -51 192q-24 110 -47 220q5 4 24 11q36 -93 67 -204q17 -69 34 -139q23 -92 44 -146q13 12 13 26q0 -9 -43 140q-2 18 -9 50q-10 31 -26 86q-46 179 -46 177q0 7 9 19t13 12q9 0 14.5 -21.5t4.5 -30.5l102 -380
q10 4 21 33q9 22 18 45q13 25 25 62q11 31 21 62q18 49 30 85q-11 53 -20 92q5 5 24 12q9 -22 16 -41l10 36q5 16 25 23q7 5 16 12q3 1 8 4q0 -1 3.5 -4.5t3.5 -8.5l-4 -15.5t-4 -25.5q1 -2 5 -21q20 -92 102 -363q10 4 19 29l16 41q13 25 25 63q11 31 21 61q31 83 61 184
q3 10 27 20q2 5 9 16l12 4q7 -6 7 -13zM536 117q0 2 -40 140q-2 18 -9 51q-11 30 -29 85q-7 28 -24 91q-6 -16 -11 -32q10 -32 22 -76q17 -70 34 -139q23 -92 44 -147q13 12 13 27z" />
    <glyph glyph-name="x" unicode="x" horiz-adv-x="515" 
d="M477 83q-2 -8 -7 -24h-15q-13 0 -42 48l-40 68q-7 -4 -24 -14q19 -26 57 -89q5 -9 1 -23q-4 -13 -13 -19q-8 2 -30 15q-11 7 -21 25q-15 30 -19 36q-16 25 -46 73q-8 16 -24 46q-9 16 -14 19t-16 16q-18 -12 -26 -26q-15 -27 -19 -34q-11 -14 -33 -44q-17 -28 -33 -56
q-31 -49 -43 -49q-6 0 -14.5 9.5t-8.5 15.5q0 8 21 55q27 62 64 104q59 68 59 76q0 2 -29 39q-33 43 -48 78q-4 9 -42 72q-29 48 -29 70q0 10 13 10q4 0 22.5 -17.5t29.5 -33.5q35 -54 102 -160q1 -16 11 -19q19 12 19 22q0 2 -38 57q-46 67 -71 109q-13 21 -31 61
q-5 15 -5 10q0 18 16 18q4 0 23 -16q36 -29 55 -76q16 -37 41 -66q29 -33 41 -55q39 56 146 200q10 14 27 14q16 0 19 -18q0 -5 -100 -143q-10 -13 -36 -55q-10 -10 -32 -42zM340 222q0 10 -75 102q-1 -1 -7 -10t-6 -12t24 -33q32 -39 48 -63q16 9 16 16z" />
    <glyph glyph-name="y" unicode="y" horiz-adv-x="477" 
d="M429 148q0 -52 -2 -68q-9 -61 -11 -66q-9 -32 -40 -54q-36 -26 -126 -55q-83 -27 -118 -27q-25 0 -61 28q-40 28 -40 53q0 15 19 28q16 12 29 12q8 0 20 -23q15 -29 30 -41q6 -5 21 -5q36 0 112 29q65 26 77 36q31 27 37 66q3 21 0 30q-9 25 -38 25q-48 0 -81 8
q-57 12 -80 22q-37 16 -66.5 49.5t-51.5 134.5q-21 95 -21 174q0 40 22 40q12 0 24 -51q10 -43 10 -62q0 12 10 -79q9 0 21 -3l-3 51q-6 111 -6 97q0 16 10 33.5t19 17.5q7 0 9 -9q24 -80 24 -163q0 -87 21 -134q29 -62 102 -76q20 -2 64 -7l4 21q5 32 5 96q0 41 -2.5 123.5
t-2.5 124.5q14 3 21 3q14 0 21.5 -15.5t7.5 -31.5q0 -110 4 -191q5 -92 6 -141zM161 208q-17 36 -19 42q-8 24 -7 58h-22q1 -49 17 -66.5t31 -33.5z" />
    <glyph glyph-name="z" unicode="z" horiz-adv-x="541" 
d="M474 593q-9 -27 -46 -73.5t-74 -109t-72 -106.5q-86 -107 -129 -189q12 4 19 4q10 0 44 -3t55 -3q7 0 18.5 1t19.5 1q11 -2 37 -3q13 0 32.5 2.5t30.5 2.5q7 0 17 -6.5t10 -10.5q0 -3 -3 -4q-49 -19 -81.5 -19t-99 -6t-103.5 -6q-23 0 -37 -2q-12 -15 -33 -13q1 4 1 8
t-5 4q-4 1 -12 0q-9 -1 -10 -1q-18 0 -29 12q3 40 235 399q26 32 74 100h-39q-43 0 -116 -6q-67 -6 -109 -6q-16 0 -42 15q8 17 31 20q-7 -1 39 -1q14 0 27.5 3t28.5 3q44 0 125 5q88 5 125 6q5 -3 13 -11q3 -6 2 -14q-1 -7 -14 -15q-37 -39 -65 -86q-31 -53 -62 -88
q17 -2 25 -2q2 0 18 22q32 44 101 148q21 31 37 46h16q2 -12 0 -18zM261 339l-6 7q-7 -1 -20 -9q-12 -23 -39 -66q-24 -30 -53 -79l-48 -82q19 11 84 106q41 61 82 123z" />
    <glyph glyph-name="braceleft" unicode="{" horiz-adv-x="340" 
d="M322 -25q0 -16 -23 -16q-29 0 -95 115q-59 102 -72 147q-25 89 -25 202q0 103 60 254q9 22 50 81q45 65 57 65q8 0 13 -15q-36 -76 -81 -173q-47 -114 -47 -248q0 -138 47 -243q30 -67 95 -139q21 -23 21 -30zM271 81q-18 21 -52 73q-21 38 -27 81q-1 2 -9 88
q-9 90 0 157q23 170 51 174q-10 -55 -21 -110q-7 -48 -7 -117q0 -99 19 -199q4 -22 12 -61q3 -11 19.5 -48.5t16.5 -39.5v0q-1 0 -2 2zM305 392q-1 -11 -31 -17q0 -4 -7 -11t-12 -7q-4 0 -31.5 4.5t-31.5 4.5q-3 0 -24.5 -1.5t-25.5 -1.5q-43 0 -68 -3t-20 -3
q-4 0 -9.5 -1.5t-9.5 -1.5t-8.5 15t-4.5 20q0 9 1 15q27 17 177 17q24 0 57 -7q41 -9 48 -22z" />
    <glyph glyph-name="bar" unicode="|" 
d="M506 400q0 -92 -48 -149q-51 -61 -139 -61q-5 0 -26 4t-26 4q-64 0 -107 76q-33 58 -33 106q0 73 57 141q63 76 149 76h23q32 0 56 -22q66 -60 79 -84q15 -27 15 -91zM450 392q0 21 -15 50q-12 21 -19 27q-35 -50 -70 -101q-44 -65 -61 -117q11 -5 13 -6t11 0q15 1 32 1
q41 0 77 58q32 51 32 88zM382 531q-21 14 -41 14q-64 0 -110 -58q-44 -54 -44 -117q0 -55 30 -80q53 81 165 241z" />
    <glyph glyph-name="braceright" unicode="}" horiz-adv-x="375" 
d="M23 807q0 16 23 16q29 0 95 -115q59 -102 72 -147q25 -89 25 -202q0 -103 -60 -254q-9 -21 -50 -81q-45 -65 -57 -65q-8 0 -13 15q36 76 81 173q47 114 47 248q0 138 -47 243q-30 67 -95 139q-21 23 -21 30zM74 701q18 -21 52 -72q21 -39 28 -82l8 -88q10 -88 0 -157
q-22 -170 -51 -174q10 55 21 110q7 48 7 117q0 99 -19 199q-3 22 -12 61q-3 11 -19.5 48.5t-16.5 39.5v0q1 0 2 -2zM355 398q-1 -11 -31 -17q0 -4 -7 -11t-12 -7q-4 0 -31.5 4.5t-31.5 4.5q-3 0 -24.5 -1.5t-25.5 -1.5q-43 0 -68 -3t-20 -3q-4 0 -9.5 -1.5t-9.5 -1.5
t-8.5 15t-4.5 20q0 9 1 15q27 17 177 17q24 0 57 -7q41 -9 48 -22z" />
    <glyph glyph-name="asciitilde" unicode="~" 
d="M506 400q0 -92 -48 -149q-51 -61 -139 -61q-5 0 -26 4t-26 4q-64 0 -107 76q-33 58 -33 106q0 73 57 141q63 76 149 76h23q32 0 56 -22q66 -60 79 -84q15 -27 15 -91zM450 392q0 21 -15 50q-12 21 -19 27q-35 -50 -70 -101q-44 -65 -61 -117q11 -5 13 -6t11 0q15 1 32 1
q41 0 77 58q32 51 32 88zM382 531q-21 14 -41 14q-64 0 -110 -58q-44 -54 -44 -117q0 -55 30 -80q53 81 165 241z" />
    <glyph glyph-name="section" unicode="&#xa7;" horiz-adv-x="835" 
d="M808 384q0 -76 -20 -130q-30 -79 -66 -121q-23 -27 -55 -55q-10 -9 -50 -34q-51 -31 -68 -31q-2 0 -22 -7.5t-33 -7.5q-3 0 -8.5 -1.5t-9.5 -1.5t-11.5 -2t-10.5 -3q-42 -3 -85 0q-14 1 -24 1q-30 0 -86 26q-43 19 -72 39q-40 28 -80 74q-54 62 -72 133q-17 68 -17 121
q0 137 84 245q91 117 243 144q30 6 109 6q4 0 11 -3t10.5 -3t27.5 -6.5t27 -6.5q20 0 100 -44q91 -60 138 -156q40 -84 40 -176zM790 384q0 43 -19 117q-15 56 -68 122q-58 72 -119 97q-55 22 -63 22q-4 0 -37 9t-37 9q-119 0 -200 -37q-98 -47 -163 -158q-48 -82 -48 -181
q0 -66 23 -127q35 -97 115.5 -165t179.5 -82q28 -3 93 -3q4 0 12 1.5t12 1.5t8.5 1.5t8.5 1.5t27.5 7.5t25.5 7.5t44 19q69 32 119 94q25 32 47 76q39 79 39 167zM644 633q0 -8 -16 -45t-22 -37q-5 0 -19 7q0 2 1 6q5 2 17 10q-2 12 -11.5 39t-9.5 30q0 4 4 8q19 -12 19 -40
q3 0 8 -6q6 12 18 37q11 0 11 -9zM577 619q0 -29 -25 -29q-4 0 -15.5 2t-16.5 2v41.5v42.5q15 -8 15 -25q3 -1 8.5 1.5t8.5 2.5q8 0 16.5 -15t8.5 -23zM438 637q-7 -8 -25 -9t-18 -10q0 -5 8 -13q5 0 14 9h11q0 -8 -1 -11q-5 -10 -15 -10h-11q-13 0 -21 16q-6 12 -6 19
q0 38 44 38q4 0 9.5 -10t10.5 -19zM371 594q-40 -10 -47 -10q-17 0 -17 27q0 22 19 35q7 2 23 10q3 10 3 12t5 7q1 0 9 -5q5 -18 5 -17v-59zM297 657q-1 0 -6.5 -1.5t-6.5 -1.5q-7 6 -1 18h14v-15zM495 446q0 -11 -12 -11q-4 0 -18 7v11q10 0 23 6q7 -7 7 -13zM304 637
q0 -2 -6 -9q-1 -11 -1 -53q-1 0 -7.5 -1.5t-9.5 -1.5q0 3 -1.5 8.5t-1.5 9.5q0 24 7 56q4 1 12 5q8 -8 8 -14zM431 448q-8 -5 -26 -16l-1.5 7.5t-1.5 16.5l8 1.5t18 1.5l3 -3v-8zM272 638l-10 -38q-6 -22 -17 -37q-15 5 -32 57q1 0 3.5 2t6.5 2t8.5 -10t7.5 -18
q11 3 16.5 21.5t16.5 20.5zM204 638l-4 -14h-14v9q-1 5 2.5 6t3.5 2q8 0 12 -3zM538 270l-11 5l5 31zM206 555q-5 -9 -20 -16q-1 46 3 73l-3 5h20v-62zM656 336q0 -24 -7 -34q-17 -16 -47 -52q0 -5 -5 -15q-18 -22 -54 -24q-30 -1 -61 -2q-6 -4 -4 -9q-37 -23 -48 -23
q-3 0 -17 7.5t-18 7.5t-40.5 -6t-39.5 -6q-34 0 -73 16.5t-58 16.5q-22 0 -62 -11q6 7 46 23t46 16q8 0 35 -24.5t43 -24.5h39q27 0 59 13q5 2 6 3.5t1 3.5q-2 4 -2 7q54 2 153 7q25 2 38 17q3 3 7 43q0 -5 7 -18q11 15 11 24q0 4 -6 21.5t-6 21.5q0 11 12 23q2 7 -11 7
q-17 0 -45 -25q1 -3 4 -3q-8 -9 -16 -10q-32 -7 -70 -7q4 0 -66 20q31 2 31 19q0 13 -18 24q5 -2 19 -8.5t18 -6.5q10 0 17 12q4 10 8 19v-31h24q11 6 35 15q-8 -8 -15 -22v-17l0.5 -1.5t5.5 -1.5l28 20q6 4 39 18q0 7 -4 17q-54 64 -146 106l-6 -6q-18 -3 -81 -24
q20 17 43 29q10 3 20 5q14 5 19 15h-50q-5 -1 -49 -20q-49 -21 -75 -36q-3 -2 -50 -36q-40 -30 -46 -30h-65q20 12 23 12q4 0 5 -1.5t4 -1.5q29 0 39 6q22 19 73 56q45 29 79 43q63 25 78 25q47 0 95 -31q38 -26 64 -60q13 -13 37 -46q6 -9 -4 -19q3 -6 16 -9t14 -3
q24 -20 24 -34zM179 539q-41 -25 -47 -25q-15 0 -13 26q0 23 23 46q12 2 14.5 8t8.5 23h11q3 -26 3 -78zM571 107q0 -23 -10 -42q-3 -4 -9 -9q-2 0 -8 -3.5t-11 -3.5q-18 0 -29 23q-9 18 -9 38q0 10 2 17q4 12 20.5 23.5t24.5 11.5q17 0 24 -26q5 -15 5 -29zM486 117l-7 -7
q-2 1 -9 16q-5 11 -10 11q-21 0 -21 -44q0 -27 5 -46q-13 -7 -21 -3v79q-1 6 12.5 19.5t18.5 13.5q32 0 32 -23v-16zM407 98q-6 0 -23.5 1.5t-20.5 1.5q-10 0 -10 -9q0 -34 23.5 -34t27.5 -4q-8 -11 -24 -11q-20 0 -31.5 18t-11.5 35q0 29 11 39.5t39 10.5q6 0 13 -11t7 -17
v-20zM325 135q-17 -17 -52 -56q33 -9 37 -9q11 0 15 -4v-10q-35 5 -50 5l-9 -3q-6 0 -20 7v14q12 20 52 54q-3 7 -25.5 10.5t-26.5 10.5v10q29 -6 79 -15v-14zM559 606v29q-7 7 -12 7q-4 0 -12 -7v-26q8 -7 14 -7t10 4zM412 640q3 8 -10 14l-7 -7v-11h14zM517 487l-17 10
l-2 -4l17 -10zM349 618q0 17 -10 18q-14 3 -14 -22q0 -11 4 -18h13q7 8 7 22zM641 324v20q-5 0 -12 1.5t-11 1.5q-10 0 -10 -18q0 -11 7 -31q1 1 13 4q13 11 13 22zM161 558q0 15 -11 20q-16 -19 -16 -30q0 -4 1.5 -9t1.5 -6q1 0 2 1t5 1q17 0 17 23zM465 209q-5 0 -16 2
t-14 2q-12 0 -19 -14q8 -4 19 -4q18 0 30 14zM556 107q0 39 -15 39q-13 0 -21.5 -12t-8.5 -29q4 -38 21 -38q4 0 4 1.5t3 1.5q17 0 17 37zM395 114q-3 6 -10.5 13t-10.5 7q-15 0 -18 -20q40 0 39 0z" />
    <glyph glyph-name="quoteleft" unicode="&#x2018;" horiz-adv-x="143" 
d="M22 593q4 41 5 45q1 32 19 54t50 22q4 0 10 -1.5t7 -1.5q-1 -9 -13 -24t-12 -19v-17q22 4 30 -3t7 -19q-3 -27 -3 -20q2 -13 3 -26q0 -12 -12 -21q-15 -10 -48 -10q-35 0 -40.5 9t-2.5 32z" />
    <glyph glyph-name="quoteright" unicode="&#x2019;" horiz-adv-x="143" 
d="M122 702q-5 -40 -5 -45q-1 -32 -19.5 -54t-49.5 -22q-5 0 -10.5 2t-6.5 2q1 8 13 23t12 19v18q-23 -5 -31 2t-6 20q2 26 2 19q-1 13 -3 26q0 12 13.5 21.5t46.5 9.5q35 0 40.5 -9t3.5 -32z" />
    <glyph glyph-name="quotedblleft" unicode="&#x201c;" horiz-adv-x="308" 
d="M183 634q4 40 5 45q1 32 19.5 54t49.5 22q4 0 10 -2t7 -2q-1 -8 -13 -23t-12 -19v-18q23 5 30.5 -2t6.5 -20q-3 -26 -3 -19q2 -13 3 -26q0 -12 -13 -21.5t-47 -9.5q-35 0 -40.5 9t-2.5 32zM24 633q5 41 5 45q2 32 20 54.5t50 22.5q4 0 10 -2t7 -2q-1 -8 -13 -23t-13 -20
v-17q23 4 31 -3t7 -19q-3 -27 -3 -20q1 -13 3 -26q0 -11 -12 -20q-15 -11 -48 -11q-35 0 -40.5 9.5t-3.5 31.5z" />
    <glyph glyph-name="quotedblright" unicode="&#x201d;" horiz-adv-x="308" 
d="M128 713q-5 -40 -5 -45q-1 -32 -19.5 -54t-49.5 -22q-5 0 -10.5 2t-6.5 2q1 8 13 23t12 19v18q-23 -5 -31 2t-6 20q2 26 2 19q-1 13 -3 26q0 12 13.5 21.5t46.5 9.5q35 0 40.5 -9t3.5 -32zM286 714q-5 -40 -5 -45q-1 -32 -19.5 -54t-49.5 -22q-5 0 -10.5 2t-6.5 2
q1 8 13 23t12 19v18q-23 -5 -31 2t-6 20q2 26 2 19q-1 13 -3 26q0 12 13.5 21.5t46.5 9.5q35 0 40.5 -9t3.5 -32z" />
    <glyph glyph-name="ellipsis" unicode="&#x2026;" horiz-adv-x="475" 
d="M154 66q0 -30 -13 -36q-3 -1 -37 -1q-41 0 -51 10.5t-10 53.5q0 39 10 49t51 10q5 0 37 -16q6 -3 8 -14q5 -22 5 -56zM301 69q0 -30 -13 -36q-3 -1 -37 -1q-41 0 -51 10.5t-10 53.5q0 39 10 49t51 10q5 0 37 -16q6 -3 8 -14q5 -22 5 -56zM447 64q0 -30 -13 -36
q-3 -1 -37 -1q-41 0 -51 10.5t-10 53.5q0 39 10 49t51 10q5 0 37 -16q6 -3 8 -14q5 -22 5 -56z" />
    </font>
</defs>
</svg>
